<svg width="50" height="50" viewBox="0 0 50 50" fill="none" xmlns="http://www.w3.org/2000/svg">
<g clip-path="url(#clip0_429_61)">
<path d="M50 25C50 38.8071 38.8071 50 25 50C11.1929 50 0 38.8071 0 25C0 11.1929 11.1929 0 25 0C38.8071 0 50 11.1929 50 25Z" fill="#3D3D3D"/>
<path d="M14.9694 24.0895L14.0032 22.87C13.7094 23.4236 13.6828 24.2224 13.9357 24.8905C14.1886 25.5586 14.6707 25.963 15.1553 25.9136L14.9694 24.0895ZM15.9357 25.309C17.085 23.1424 17.9845 20.914 18.8595 18.8748C19.7464 16.8078 20.6292 14.8801 21.7984 13.0947L20.0127 10.4067C18.6846 12.4349 17.7056 14.5914 16.8018 16.6978C15.8861 18.832 15.0662 20.8662 14.0032 22.87L15.9357 25.309ZM21.7984 13.0947C22.1644 12.5356 22.5737 11.7717 22.8742 11.2583C23.2184 10.6707 23.5096 10.2428 23.7893 9.97989L22.3905 6.82549C21.8354 7.34744 21.3765 8.07127 21.0081 8.70028C20.5963 9.4036 20.3306 9.92123 20.0127 10.4067L21.7984 13.0947ZM23.7893 9.97989C23.8739 9.90033 23.9403 9.81735 23.9782 9.76831C24.0191 9.71516 24.0567 9.66203 24.0819 9.62607C24.1453 9.53582 24.1639 9.50829 24.1849 9.48194C24.2106 9.44959 24.1649 9.51753 24.0636 9.57968C23.9583 9.64427 23.6471 9.78614 23.2644 9.52052L24.105 6.21873C23.6236 5.88447 23.2065 6.04186 22.9934 6.17255C22.7844 6.30076 22.6291 6.48535 22.5487 6.58662C22.4635 6.69386 22.3794 6.81693 22.3487 6.86069C22.284 6.95293 22.3193 6.89245 22.3905 6.82549L23.7893 9.97989ZM23.2644 9.52052C23.4608 9.65688 23.8216 10.1586 24.3308 11.1567C24.5611 11.608 24.7838 12.0818 25.0078 12.5576C25.2213 13.0113 25.4505 13.4985 25.6612 13.893L27.4834 11.7484C27.336 11.4725 27.1587 11.0984 26.9308 10.6141C26.7132 10.1518 26.4593 9.61085 26.1909 9.08484C25.7028 8.12818 24.9779 6.82481 24.105 6.21873L23.2644 9.52052ZM25.6612 13.893C27.2706 16.9054 28.8659 19.8334 30.3666 22.8699L32.2522 20.8489C30.7115 17.7312 29.0692 14.7168 27.4834 11.7484L25.6612 13.893ZM30.3666 22.8699C30.4818 23.1031 30.6351 23.3868 30.7421 23.5906C30.8643 23.8233 30.9697 24.0318 31.0575 24.2303C31.2637 24.6971 31.2326 24.8017 31.2374 24.6893L33.6456 25.2434C33.6965 24.0488 33.2979 23.0018 33.0259 22.3865C32.8745 22.0441 32.713 21.7291 32.5785 21.4729C32.4288 21.188 32.3355 21.0176 32.2522 20.8489L30.3666 22.8699ZM31.2374 24.6893C31.2494 24.4095 31.3188 23.9346 31.5998 23.5654C31.8775 23.2003 32.1952 23.1587 32.3716 23.1716C32.5409 23.184 32.669 23.2499 32.72 23.2781C32.7805 23.3115 32.824 23.3443 32.8415 23.3579C32.8701 23.3799 32.8933 23.4019 32.8576 23.3697C32.8562 23.3683 32.766 23.2842 32.6657 23.2164L31.8504 26.5356C31.7797 26.4878 31.7267 26.4367 31.7645 26.4708C31.7682 26.4741 31.8328 26.5336 31.8994 26.5852C31.9182 26.5996 32.1583 26.8009 32.4673 26.8235C32.6564 26.8374 32.9846 26.7919 33.2699 26.4169C33.5585 26.0377 33.6325 25.5467 33.6456 25.2434L31.2374 24.6893ZM32.6657 23.2164C31.7953 22.6287 30.8922 22.5376 30.2839 22.4474L30.2604 26.0862C30.9934 26.1948 31.443 26.2606 31.8504 26.5356L32.6657 23.2164ZM30.2839 22.4474C28.6274 22.202 26.9808 21.9471 25.331 21.6613L25.2672 25.2936C26.9361 25.5828 28.5977 25.8398 30.2604 26.0862L30.2839 22.4474ZM25.331 21.6613C24.7618 21.5627 24.1682 21.4293 23.5349 21.2896C22.9096 21.1518 22.2509 21.0091 21.5893 20.9035C20.274 20.6937 18.8652 20.6149 17.5346 21.0511L18.2398 24.6282C19.2121 24.3096 20.3249 24.3443 21.5475 24.5395C22.1549 24.6364 22.7693 24.769 23.396 24.9072C24.0146 25.0435 24.6518 25.1869 25.2672 25.2936L25.331 21.6613ZM17.5346 21.0511C16.8405 21.2786 16.3182 21.6257 15.9383 21.8466C15.5606 22.0663 15.2434 22.2185 14.7835 22.2654L15.1553 25.9136C15.94 25.8336 16.4949 25.5531 16.9716 25.2758C17.4461 24.9998 17.7605 24.7854 18.2398 24.6282L17.5346 21.0511Z" fill="white"/>
<path d="M21.1177 12.9359C19.0996 16.2111 18.1204 19.959 16.3363 23.5431C17.3505 23.4397 17.7546 22.8057 18.7095 22.4797C20.5839 21.8401 22.8229 22.6998 24.7566 23.0649C26.1111 23.3208 27.4612 23.5493 28.8156 23.7691C29.363 23.8581 29.9148 23.9289 30.438 24.3038C30.4864 24.3386 30.5851 24.4637 30.5879 24.3827C30.6204 23.45 29.9776 22.3937 29.6499 21.6991C28.3951 19.0395 27.0609 16.4706 25.7438 13.8854C25.1532 12.7262 24.2409 10.249 23.3654 9.60391C23.2036 9.48466 22.9988 9.94532 22.8829 10.0605C22.206 10.733 21.6705 12.0389 21.1177 12.9359Z" fill="white"/>
<path d="M23.0742 25.0125C22.0899 28.4845 22.8617 28.0714 21.869 31.848" stroke="white" stroke-width="2.5" stroke-linecap="round"/>
<g clip-path="url(#clip1_429_61)">
<path d="M25.0743 25.0125C24.09 28.4845 24.8618 28.0714 23.8691 31.848" stroke="white" stroke-width="2.5" stroke-linecap="round"/>
<g clip-path="url(#clip2_429_61)">
<path d="M24.0743 25.0125C23.09 28.4845 23.8618 28.0714 22.8691 31.848" stroke="white" stroke-width="2.5" stroke-linecap="round"/>
</g>
</g>
<g clip-path="url(#clip3_429_61)">
<path d="M22.0743 25.0125C21.09 28.4845 21.8618 28.0714 20.8691 31.848" stroke="white" stroke-width="2.5" stroke-linecap="round"/>
</g>
</g>
<defs>
<clipPath id="clip0_429_61">
<rect width="50" height="50" fill="white"/>
</clipPath>
<clipPath id="clip1_429_61">
<rect width="5" height="11" fill="white" transform="translate(22 23)"/>
</clipPath>
<clipPath id="clip2_429_61">
<rect width="5" height="11" fill="white" transform="translate(21 23)"/>
</clipPath>
<clipPath id="clip3_429_61">
<rect width="5" height="11" fill="white" transform="translate(19 23)"/>
</clipPath>
</defs>
</svg>
