<svg width="53" height="53" viewBox="0 0 53 53" fill="none" xmlns="http://www.w3.org/2000/svg">
<g clip-path="url(#clip0_429_61)">
<path d="M24.9698 1.22032C38.7605 0.546313 50.4864 11.1795 51.1604 24.9701C51.8344 38.7608 41.2013 50.4867 27.4106 51.1607C13.62 51.8347 1.89404 41.2015 1.22003 27.4109C0.546028 13.6203 11.1792 1.89432 24.9698 1.22032Z" fill="#3D3D3D"/>
<path d="M25.7704 36.2534L24.5995 37.2781C25.1668 37.5444 25.966 37.5321 26.6209 37.2469C27.2759 36.9617 27.6563 36.4604 27.5833 35.9787L25.7704 36.2534ZM26.9413 35.2288C24.7212 34.1866 22.4515 33.3969 20.372 32.6226C18.2642 31.8377 16.2957 31.05 14.4554 29.9694L11.8577 31.8841C13.9483 33.1117 16.1501 33.9842 18.2981 34.7841C20.4745 35.5945 22.5462 36.3141 24.5995 37.2781L26.9413 35.2288ZM14.4554 29.9694C13.8791 29.631 13.0961 29.2596 12.5687 28.9844C11.9649 28.6694 11.5233 28.3994 11.2471 28.1329L8.16474 29.684C8.71317 30.213 9.45853 30.636 10.1048 30.9732C10.8274 31.3502 11.3573 31.5903 11.8577 31.8841L14.4554 29.9694ZM11.2471 28.1329C11.1635 28.0523 11.0774 27.99 11.0265 27.9546C10.9715 27.9163 10.9166 27.8813 10.8794 27.8579C10.7862 27.799 10.7578 27.7817 10.7304 27.7621C10.6969 27.738 10.767 27.7803 10.834 27.8784C10.9036 27.9805 11.0605 28.2844 10.8139 28.6795L7.47501 28.0012C7.16465 28.4983 7.34221 28.9072 7.48315 29.1137C7.6214 29.3161 7.81335 29.4623 7.91843 29.5377C8.0297 29.6175 8.15673 29.6955 8.20194 29.724C8.29723 29.7841 8.2351 29.7519 8.16474 29.684L11.2471 28.1329ZM10.8139 28.6795C10.9405 28.4767 11.424 28.0919 12.3961 27.5346C12.8356 27.2825 13.298 27.0369 13.7622 26.79C14.205 26.5546 14.6804 26.3019 15.0641 26.0722L12.8331 24.3569C12.5648 24.5176 12.1998 24.7129 11.7272 24.9642C11.2761 25.204 10.7482 25.4841 10.2359 25.7778C9.30418 26.3121 8.03775 27.0997 7.47501 28.0012L10.8139 28.6795ZM15.0641 26.0722C17.9944 24.3176 20.841 22.5813 23.8007 20.9342L21.69 19.1495C18.6513 20.8405 15.7206 22.628 12.8331 24.3569L15.0641 26.0722ZM23.8007 20.9342C24.028 20.8077 24.3038 20.6408 24.5021 20.5239C24.7286 20.3905 24.9318 20.2751 25.1257 20.1777C25.5818 19.9489 25.6879 19.9749 25.5754 19.9756L26.0113 17.5433C24.8156 17.5507 23.7893 17.9999 23.188 18.3016C22.8534 18.4696 22.5466 18.6463 22.2974 18.7931C22.0201 18.9565 21.8545 19.058 21.69 19.1495L23.8007 20.9342ZM25.5754 19.9756C25.2954 19.9773 24.8176 19.9311 24.4351 19.6685C24.0569 19.409 23.9998 19.0936 24.0042 18.9169C24.0083 18.7472 24.0678 18.616 24.0935 18.5637C24.1239 18.5016 24.1546 18.4565 24.1673 18.4384C24.1878 18.4088 24.2086 18.3845 24.1782 18.4217C24.177 18.4232 24.0973 18.5174 24.0345 18.6209L27.3896 19.2732C27.3453 19.3461 27.2968 19.4015 27.329 19.3621C27.3321 19.3583 27.3884 19.2909 27.4367 19.2218C27.4502 19.2023 27.6395 18.9527 27.647 18.643C27.6517 18.4534 27.5902 18.1279 27.2017 17.8611C26.8089 17.5915 26.3149 17.5415 26.0113 17.5433L25.5754 19.9756ZM24.0345 18.6209C23.49 19.5189 23.4431 20.4254 23.3827 21.0374L27.0183 20.8832C27.091 20.1458 27.1347 19.6935 27.3896 19.2732L24.0345 18.6209ZM23.3827 21.0374C23.2185 22.7039 23.0443 24.361 22.8393 26.0228L26.4704 25.9092C26.6778 24.2282 26.8534 22.556 27.0183 20.8832L23.3827 21.0374ZM22.8393 26.0228C22.7686 26.5961 22.6644 27.1955 22.5558 27.8349C22.4486 28.4661 22.3383 29.131 22.265 29.797C22.1197 31.121 22.1098 32.5319 22.6105 33.8397L26.1488 32.9607C25.7831 32.0051 25.7635 30.8919 25.8988 29.6612C25.966 29.0499 26.0684 28.4297 26.1758 27.797C26.2817 27.1725 26.3938 26.5291 26.4704 25.9092L22.8393 26.0228ZM22.6105 33.8397C22.8715 34.5218 23.2437 35.0265 23.4829 35.3952C23.7208 35.7617 23.8883 36.0712 23.9576 36.5282L27.5833 35.9787C27.4651 35.1989 27.1578 34.6584 26.8576 34.1957C26.5588 33.7353 26.3293 33.4318 26.1488 32.9607L22.6105 33.8397Z" fill="white"/>
<path d="M14.3296 30.6569C17.6994 32.5128 21.4907 33.3079 25.1575 34.9149C25.0048 33.9069 24.3518 33.5343 23.9796 32.5963C23.2492 30.7555 23.9986 28.4771 24.2689 26.528C24.4584 25.1625 24.6207 23.803 24.7741 22.4393C24.8362 21.8883 24.88 21.3337 25.229 20.7929C25.2613 20.7428 25.3815 20.6381 25.3004 20.6392C24.3673 20.6523 23.3436 21.3459 22.6658 21.7071C20.0706 23.0902 17.57 24.5483 15.0521 25.99C13.9231 26.6365 11.4934 27.6687 10.8918 28.5746C10.7806 28.742 11.2507 28.924 11.3715 29.0342C12.0762 29.6775 13.4066 30.1486 14.3296 30.6569Z" fill="white"/>
<path d="M26.2969 28.113C29.8128 28.9267 29.3625 28.1759 33.1831 28.9831" stroke="white" stroke-width="2.5" stroke-linecap="round"/>
<g clip-path="url(#clip1_429_61)">
<path d="M26.2 26.1158C29.7159 26.9295 29.2656 26.1787 33.0862 26.9859" stroke="white" stroke-width="2.5" stroke-linecap="round"/>
<g clip-path="url(#clip2_429_61)">
<path d="M26.2488 27.1146C29.7647 27.9283 29.3144 27.1775 33.135 27.9847" stroke="white" stroke-width="2.5" stroke-linecap="round"/>
</g>
</g>
<g clip-path="url(#clip3_429_61)">
<path d="M26.3464 29.1122C29.8624 29.9259 29.4121 29.1751 33.2327 29.9822" stroke="white" stroke-width="2.5" stroke-linecap="round"/>
</g>
</g>
<defs>
<clipPath id="clip0_429_61">
<rect width="50" height="50" fill="white" transform="translate(2.44043 52.3811) rotate(-92.7981)"/>
</clipPath>
<clipPath id="clip1_429_61">
<rect width="5" height="11" fill="white" transform="translate(24.3398 29.2847) rotate(-92.7981)"/>
</clipPath>
<clipPath id="clip2_429_61">
<rect width="5" height="11" fill="white" transform="translate(24.3887 30.2834) rotate(-92.7981)"/>
</clipPath>
<clipPath id="clip3_429_61">
<rect width="5" height="11" fill="white" transform="translate(24.4863 32.281) rotate(-92.7981)"/>
</clipPath>
</defs>
</svg>
