<svg width="50" height="50" viewBox="0 0 50 50" fill="none" xmlns="http://www.w3.org/2000/svg">
<path d="M50 25C50 38.8071 38.8071 50 25 50C11.1929 50 0 38.8071 0 25C0 11.1929 11.1929 0 25 0C38.8071 0 50 11.1929 50 25Z" fill="#3D3D3D"/>
<path d="M20.6777 15.8669C21.4111 13.4049 22.3514 11.0725 23.5936 8.81789C24.0908 7.91562 24.6171 6.89723 25.7137 6.68446C27.0482 6.42551 28.809 6.82999 29.3251 8.24942C29.8625 9.72711 29.8129 11.4391 29.6796 12.9777C29.5678 14.2681 28.9841 15.8431 28.9841 16.9503" stroke="white" stroke-width="2.5" stroke-linecap="round"/>
<path d="M16.6393 16.5827L15.7463 15.708C15.5584 15.8998 15.4373 16.147 15.4009 16.413L16.6393 16.5827ZM14.8756 24.9943L13.6301 24.8883L14.8756 24.9943ZM14.3717 28.2601L15.6148 28.3909L14.3717 28.2601ZM13.4317 31.8263L12.206 31.5811L13.4317 31.8263ZM13.0634 35.5863L11.8264 35.4067L13.0634 35.5863ZM14.3523 37.5148L14.2048 38.756L14.3523 37.5148ZM32.3578 36.8558L32.6326 38.0752L32.3578 36.8558ZM32.8908 32.1073L34.138 32.1914L32.8908 32.1073ZM34.325 26.6998L35.5642 26.8639L34.325 26.6998ZM34.6933 21.8254L35.9401 21.9144L34.6933 21.8254ZM34.8774 19.3252L36.1174 19.483L34.8774 19.3252ZM33.5013 17.5324L33.6033 16.2865L33.5013 17.5324ZM28.0163 17.3192L28.0769 16.0706L28.0163 17.3192ZM21.194 16.2144L21.4128 14.9837L21.194 16.2144ZM18.5 16.2144L18.5397 17.4638L18.5 16.2144ZM15.4009 16.413C15.218 17.7485 14.8621 19.0478 14.4934 20.462C14.1323 21.8465 13.7628 23.3294 13.6301 24.8883L16.1211 25.1003C16.2337 23.7771 16.5507 22.4804 16.9125 21.0928C17.2666 19.7347 17.67 18.2692 17.8778 16.7523L15.4009 16.413ZM13.6301 24.8883C13.5899 25.3608 13.5039 25.8474 13.4029 26.3969C13.3054 26.9272 13.1922 27.5246 13.1286 28.1292L15.6148 28.3909C15.6663 27.9017 15.759 27.4073 15.8617 26.8489C15.9608 26.3095 16.0692 25.7102 16.1211 25.1003L13.6301 24.8883ZM13.1286 28.1292C13.0781 28.6089 12.9401 29.0909 12.7539 29.6695C12.5786 30.214 12.3451 30.8857 12.206 31.5811L14.6574 32.0714C14.7608 31.5543 14.9321 31.0616 15.1337 30.4355C15.3242 29.8435 15.5351 29.1487 15.6148 28.3909L13.1286 28.1292ZM12.206 31.5811C12.0656 32.283 12.015 32.9892 11.9759 33.6222C11.9352 34.281 11.907 34.8515 11.8264 35.4067L14.3005 35.7659C14.3997 35.0823 14.4336 34.3828 14.4711 33.7764C14.5102 33.1441 14.5538 32.5897 14.6574 32.0714L12.206 31.5811ZM11.8264 35.4067C11.7772 35.7454 11.724 36.1091 11.7131 36.4262C11.7024 36.739 11.7212 37.1966 11.9693 37.6364C12.241 38.1177 12.665 38.3717 13.0462 38.5122C13.3997 38.6425 13.806 38.7086 14.2048 38.756L14.4999 36.2735C14.3279 36.2531 14.1956 36.2329 14.093 36.2126C13.9889 36.192 13.934 36.175 13.9109 36.1665C13.8885 36.1582 13.9195 36.1665 13.9726 36.2065C14.0323 36.2516 14.0969 36.3196 14.1466 36.4078C14.237 36.568 14.2063 36.6673 14.2116 36.512C14.2139 36.446 14.2215 36.355 14.2373 36.225C14.253 36.0955 14.2741 35.9475 14.3005 35.7659L11.8264 35.4067ZM14.2048 38.756C16.623 39.0435 19.1093 38.9392 21.3684 38.9392V36.4392C18.962 36.4392 16.7238 36.5379 14.4999 36.2735L14.2048 38.756ZM21.3684 38.9392C25.0881 38.9392 28.812 38.9362 32.6326 38.0752L32.083 35.6364C28.5751 36.4269 25.1241 36.4392 21.3684 36.4392V38.9392ZM32.6326 38.0752C33.663 37.843 33.9959 36.8843 34.1083 36.432C34.2447 35.8833 34.2691 35.2483 34.2634 34.6984C34.2574 34.1307 34.2166 33.5506 34.184 33.0893C34.1473 32.569 34.1309 32.2963 34.138 32.1914L31.6436 32.0232C31.6217 32.3483 31.6611 32.8533 31.6902 33.2654C31.7235 33.7364 31.7585 34.2434 31.7635 34.7245C31.7687 35.2234 31.7393 35.5988 31.6821 35.8292C31.6009 36.156 31.6004 35.7451 32.083 35.6364L32.6326 38.0752ZM34.138 32.1914C34.1887 31.4381 34.4268 30.703 34.7413 29.8135C35.0389 28.9716 35.4196 27.9569 35.5642 26.8639L33.0858 26.5358C32.9827 27.3149 32.71 28.0589 32.3843 28.9802C32.0754 29.8539 31.7203 30.8865 31.6436 32.0232L34.138 32.1914ZM35.5642 26.8639C35.7835 25.2069 35.8303 23.4514 35.9401 21.9144L33.4465 21.7363C33.325 23.4366 33.2925 24.9742 33.0858 26.5358L35.5642 26.8639ZM35.9401 21.9144C36.0055 20.9985 36.0175 20.2683 36.1174 19.483L33.6374 19.1673C33.5267 20.0375 33.4999 20.9885 33.4465 21.7363L35.9401 21.9144ZM36.1174 19.483C36.1145 19.5056 36.1162 19.486 36.1515 19.3535C36.1776 19.2556 36.2221 19.095 36.2582 18.9399C36.2941 18.7854 36.3362 18.5776 36.3497 18.3592C36.3613 18.1702 36.3656 17.8008 36.1796 17.4288L33.9435 18.5468C33.8825 18.4249 33.8646 18.3243 33.8586 18.2771C33.8524 18.228 33.8547 18.2008 33.8544 18.205C33.8536 18.2185 33.8474 18.2696 33.8231 18.3738C33.799 18.4775 33.7716 18.5756 33.7359 18.7095C33.7197 18.77 33.7013 18.8406 33.685 18.9106C33.6695 18.9772 33.65 19.0686 33.6374 19.1673L36.1174 19.483ZM36.1796 17.4288C35.9458 16.9612 35.5503 16.722 35.294 16.604C35.0243 16.4797 34.7474 16.4152 34.5343 16.3777C34.1357 16.3076 33.6479 16.2902 33.6033 16.2865L33.3993 18.7782C33.4577 18.783 33.5269 18.7868 33.5783 18.7897C33.6369 18.793 33.695 18.7963 33.7563 18.8007C33.881 18.8097 33.9987 18.8219 34.1011 18.8399C34.2122 18.8595 34.2538 18.8773 34.248 18.8746C34.2416 18.8717 34.201 18.8526 34.1461 18.807C34.0891 18.7595 34.0079 18.6757 33.9435 18.5468L36.1796 17.4288ZM33.6033 16.2865C31.7799 16.1372 29.7731 16.153 28.0769 16.0706L27.9557 18.5677C29.9106 18.6626 31.5791 18.6291 33.3993 18.7782L33.6033 16.2865ZM28.0769 16.0706C25.8555 15.9628 23.83 15.4134 21.4128 14.9837L20.9752 17.4451C23.1216 17.8267 25.524 18.4496 27.9557 18.5677L28.0769 16.0706ZM21.4128 14.9837C19.9305 14.7202 19.3935 14.9354 18.4603 14.9651L18.5397 17.4638C20.0919 17.4145 19.8126 17.2384 20.9752 17.4451L21.4128 14.9837ZM18.4603 14.9651C18.1153 14.976 17.6312 14.9774 17.2299 15.0314C16.8185 15.0869 16.2194 15.2249 15.7463 15.708L17.5324 17.4573C17.4199 17.5721 17.3403 17.5391 17.5637 17.509C17.6631 17.4956 17.7894 17.4867 17.9605 17.4803C18.1509 17.4731 18.2981 17.4715 18.5397 17.4638L18.4603 14.9651Z" fill="white"/>
</svg>
