<svg width="50" height="50" viewBox="0 0 50 50" fill="none" xmlns="http://www.w3.org/2000/svg">
<path d="M50 25C50 38.8071 38.8071 50 25 50C11.1929 50 0 38.8071 0 25C0 11.1929 11.1929 0 25 0C38.8071 0 50 11.1929 50 25Z" fill="#3D3D3D"/>
<path d="M16.6393 16.5826C16.2486 19.435 15.1209 22.1122 14.8756 24.9942C14.7835 26.0766 14.4868 27.1662 14.3717 28.26C14.2414 29.4975 13.6742 30.6136 13.4317 31.8262C13.1877 33.0463 13.2433 34.3475 13.0634 35.5863C12.8546 37.0249 12.8281 37.3335 14.3523 37.5147C16.6734 37.7907 19.0356 37.6892 21.3684 37.6892C25.1061 37.6892 28.6936 37.6815 32.3578 36.8557C33.4535 36.6088 32.8328 32.9672 32.8908 32.1073C33.0182 30.2172 34.0773 28.5719 34.325 26.6998C34.538 25.0905 34.5777 23.4439 34.6933 21.8253C34.7527 20.9935 34.7721 20.1528 34.8774 19.3251C34.9158 19.0234 35.2129 18.2906 35.0615 17.9878C34.8471 17.5589 33.8124 17.5578 33.5013 17.5323C31.6795 17.3831 29.8419 17.4077 28.0163 17.3191C25.6898 17.2062 23.4758 16.62 21.194 16.2144C19.8715 15.9793 19.0643 16.5432 17.8216 16.5826C17.3858 16.5964 16.7602 16.7034 16.4649 16.4082" stroke="white" stroke-width="2.5" stroke-linecap="round"/>
<path d="M23.9653 8.1667C20.9703 10.5805 19.237 13.4494 16.5 16.1249C17.8049 16.1249 18.4018 15.6587 19.6601 15.4789C22.1299 15.1261 24.8696 15.9816 27.2845 16.4237C28.9762 16.7335 30.6657 17.0214 32.362 17.3028C33.0475 17.4166 33.741 17.5165 34.3585 17.8533C34.4156 17.8845 34.5251 17.9908 34.5392 17.9273C34.7016 17.1965 34.0201 16.3143 33.693 15.7418C32.4403 13.5497 31.0746 11.4227 29.7329 9.28407C29.1313 8.32519 28.291 6.30401 27.2599 5.72656C27.0693 5.61982 26.7488 5.96567 26.5862 6.04698C25.6369 6.52159 24.7856 7.50556 23.9653 8.1667Z" fill="white"/>
<path d="M16.5 16.1249L15.6262 15.231C15.2628 15.5862 15.1507 16.1261 15.3425 16.5967C15.5342 17.0673 15.9918 17.3749 16.5 17.3749V16.1249ZM23.9653 8.1667L23.1809 7.19345L23.1809 7.19345L23.9653 8.1667ZM26.5862 6.04698L26.0272 4.92895L26.0272 4.92895L26.5862 6.04698ZM27.2599 5.72656L27.8706 4.63593L27.8706 4.63593L27.2599 5.72656ZM29.7329 9.28407L28.674 9.94836L28.674 9.94836L29.7329 9.28407ZM33.693 15.7418L32.6077 16.362L32.6077 16.362L33.693 15.7418ZM34.5392 17.9273L35.7595 18.1984L35.7595 18.1984L34.5392 17.9273ZM34.3585 17.8533L34.957 16.7559L34.957 16.7559L34.3585 17.8533ZM32.362 17.3028L32.1574 18.536L32.1574 18.536L32.362 17.3028ZM27.2845 16.4237L27.0594 17.6533L27.0594 17.6533L27.2845 16.4237ZM19.6601 15.4789L19.4833 14.2415L19.4833 14.2415L19.6601 15.4789ZM17.3738 17.0188C18.7956 15.6288 19.9648 14.1796 21.0885 12.857C22.2275 11.5164 23.3475 10.27 24.7497 9.13994L23.1809 7.19345C21.588 8.47722 20.344 9.87217 19.1833 11.2383C18.0073 12.6225 16.9413 13.9455 15.6262 15.231L17.3738 17.0188ZM24.7497 9.13994C25.1887 8.78608 25.6942 8.29623 26.0604 7.96885C26.4797 7.59408 26.8272 7.32399 27.1452 7.16502L26.0272 4.92895C25.3959 5.24458 24.8431 5.70378 24.3943 6.10493C23.8925 6.55347 23.5621 6.88618 23.1809 7.19345L24.7497 9.13994ZM27.1452 7.16502C27.2414 7.11691 27.3191 7.06522 27.3636 7.03458C27.4117 7.00136 27.4563 6.96792 27.4863 6.94528C27.5616 6.88845 27.5839 6.87107 27.6084 6.85464C27.6385 6.83448 27.5839 6.8774 27.4722 6.91255C27.3561 6.94908 27.0181 7.02379 26.6491 6.81719L27.8706 4.63593C27.4064 4.37595 26.9569 4.45387 26.7219 4.52778C26.4915 4.60029 26.3108 4.71475 26.2166 4.77787C26.1169 4.84472 26.0166 4.92238 25.9801 4.94993C25.9032 5.00802 25.9462 4.96944 26.0272 4.92895L27.1452 7.16502ZM26.6491 6.81719C26.8385 6.92325 27.1598 7.28848 27.5827 8.00059C27.774 8.32261 27.955 8.65935 28.1371 8.99748C28.3107 9.31996 28.497 9.66622 28.674 9.94836L30.7918 8.61978C30.668 8.42248 30.5236 8.15652 30.3383 7.8123C30.1614 7.48372 29.9551 7.09928 29.7322 6.72397C29.3268 6.0414 28.7124 5.10732 27.8706 4.63593L26.6491 6.81719ZM28.674 9.94836C30.0256 12.1027 31.3715 14.1988 32.6077 16.362L34.7783 15.1216C33.5091 12.9006 32.1236 10.7426 30.7918 8.61978L28.674 9.94836ZM32.6077 16.362C32.7026 16.5281 32.8317 16.7311 32.9212 16.8767C33.0234 17.043 33.1107 17.1917 33.1808 17.3324C33.3455 17.6632 33.3021 17.732 33.319 17.6561L35.7595 18.1984C35.9387 17.3917 35.6358 16.654 35.4186 16.2179C35.2977 15.9752 35.1634 15.7504 35.0509 15.5674C34.9257 15.3638 34.8469 15.2418 34.7783 15.1216L32.6077 16.362ZM33.319 17.6561C33.361 17.4672 33.4833 17.1499 33.8139 16.9189C34.1407 16.6905 34.4749 16.6842 34.6565 16.7052C34.8309 16.7253 34.9569 16.7788 35.0068 16.8015C35.0661 16.8283 35.1078 16.8536 35.1245 16.864C35.1518 16.8809 35.1736 16.8974 35.14 16.8731C35.1386 16.8721 35.0539 16.8088 34.957 16.7559L33.7599 18.9507C33.6916 18.9134 33.642 18.8751 33.6776 18.9008C33.6811 18.9033 33.7418 18.9481 33.8055 18.9877C33.8235 18.9988 34.0514 19.1519 34.3696 19.1886C34.5644 19.2111 34.9098 19.2029 35.2456 18.9683C35.5851 18.7311 35.7139 18.4032 35.7595 18.1984L33.319 17.6561ZM34.957 16.7559C34.1159 16.2971 33.1883 16.1729 32.5666 16.0697L32.1574 18.536C32.9066 18.6603 33.3662 18.736 33.7599 18.9507L34.957 16.7559ZM32.5666 16.0697C30.8735 15.7888 29.1916 15.5021 27.5097 15.1942L27.0594 17.6533C28.7607 17.9648 30.4579 18.254 32.1574 18.536L32.5666 16.0697ZM27.5097 15.1942C26.9295 15.088 26.3276 14.9565 25.6851 14.818C25.0508 14.6813 24.3823 14.539 23.7068 14.4216C22.364 14.1884 20.9104 14.0376 19.4833 14.2415L19.8369 16.7163C20.8797 16.5674 22.0308 16.6679 23.279 16.8848C23.899 16.9925 24.5226 17.1249 25.1584 17.2619C25.7859 17.3971 26.432 17.5384 27.0594 17.6533L27.5097 15.1942ZM19.4833 14.2415C18.739 14.3478 18.1603 14.5471 17.7427 14.6707C17.3275 14.7936 16.9821 14.8749 16.5 14.8749V17.3749C17.3227 17.3749 17.9283 17.223 18.4523 17.0679C18.9739 16.9135 19.3229 16.7898 19.8369 16.7163L19.4833 14.2415Z" fill="white"/>
</svg>
