<svg width="210" height="27" viewBox="0 0 210 27" fill="none" xmlns="http://www.w3.org/2000/svg">
<path d="M18.305 4.46895C18.0603 4.41941 17.8122 4.38915 17.5629 4.37844C17.4477 4.37381 17.3329 4.36704 17.2177 4.3567C17.0185 4.31928 16.8211 4.26975 16.6198 4.2416C16.4797 4.22117 16.341 4.19622 16.2035 4.16676C15.9735 4.11759 15.7411 4.08801 15.5079 4.05808C15.2296 4.02244 14.9517 4.02779 14.6716 4.0203C14.4294 4.01424 14.1871 4.0032 13.9459 3.97647C13.7215 3.94084 13.4974 3.90983 13.2724 3.87954C12.8985 3.81611 12.541 3.68533 12.1724 3.60016C11.6991 3.49076 11.2192 3.41806 10.7371 3.35285C10.5156 3.32265 10.2928 3.30386 10.0695 3.29655C9.82888 3.29013 9.58908 3.2741 9.35009 3.24844C9.1621 3.21886 8.97516 3.18501 8.78787 3.15151C8.68545 3.13199 8.58155 3.12162 8.47735 3.12051C8.29059 3.11732 8.10658 3.16664 7.94559 3.26305C7.6955 3.41194 7.51372 3.65581 7.4402 3.94107C7.36667 4.22633 7.40743 4.52964 7.5535 4.78433C7.68583 5.01311 7.94033 5.24759 8.20674 5.29498C8.64364 5.37374 9.08193 5.45071 9.52373 5.48848C9.84545 5.51664 10.1707 5.50523 10.491 5.54194L10.7711 5.57757C10.938 5.60929 11.1026 5.65348 11.271 5.67878C11.405 5.69873 11.5419 5.7251 11.676 5.7586C11.6806 6.03396 11.6703 6.30936 11.6452 6.58356C11.5052 7.53432 11.3441 8.48329 11.1414 9.42157C11.0116 10.0206 10.8572 10.6143 10.7259 11.2126C10.6625 11.4977 10.5936 11.7828 10.5239 12.0661C10.442 12.4116 10.3819 12.7622 10.344 13.1155C10.2463 13.7541 10.0898 14.3724 9.90637 14.9935C9.79014 15.3884 9.64591 15.7743 9.52128 16.1674C9.43901 16.4311 9.35324 16.6976 9.25627 16.9571C9.10679 17.2817 8.9286 17.5889 8.75496 17.9017C8.56137 18.2485 8.39123 18.6098 8.17034 18.9395C8.06337 19.0608 7.94815 19.1742 7.82551 19.2791C7.46808 19.547 7.0949 19.805 6.69581 20.0021C6.50699 20.0696 6.31279 20.1204 6.11539 20.1539C6.01436 20.1651 5.91279 20.1703 5.81117 20.1696C5.55865 20.1041 5.31062 20.0218 5.06866 19.9233C4.83873 19.8249 4.61848 19.7045 4.41086 19.5638C4.05764 19.2623 3.74292 18.9127 3.4464 18.5564C3.29412 18.3736 3.14044 18.1925 2.98185 18.0151C2.85968 17.8782 2.72455 17.7535 2.60552 17.6149L2.56176 17.5579C2.48664 17.4566 2.41744 17.351 2.35452 17.2414C2.32476 17.1876 2.2915 17.1345 2.25999 17.0821C2.23164 16.962 2.21413 16.925 2.13782 16.7578C2.12664 16.7334 2.11413 16.7096 2.10036 16.6866C1.90467 16.1773 1.31269 15.8944 0.796325 16.0391C0.206446 16.2051 -0.105122 16.8199 0.0321083 17.4078C0.0620836 17.5204 0.108333 17.6277 0.169338 17.7264C0.309369 18.1947 0.611485 18.6102 0.906949 18.9901C0.944057 19.0389 0.981516 19.0873 1.01897 19.1362L0.918152 19.0032C1.10194 19.2374 1.30324 19.4458 1.50593 19.6664C1.73733 19.9187 1.93827 20.1985 2.16933 20.4504C2.40252 20.7123 2.65318 20.9574 2.91954 21.1841C3.09773 21.3324 3.28012 21.4838 3.47966 21.6018C3.61549 21.6827 3.76252 21.7443 3.9043 21.8135C4.27255 21.9894 4.65236 22.1391 5.041 22.2614C5.27598 22.3334 5.5183 22.3778 5.76321 22.3936C5.93545 22.4079 6.10979 22.3836 6.28027 22.3619C6.55438 22.3262 6.82814 22.2906 7.09455 22.2129C7.37346 22.1294 7.64326 22.017 7.89973 21.8776C8.25295 21.6894 8.58623 21.4553 8.9083 21.2166C9.19781 21.0027 9.48942 20.7889 9.72292 20.511C9.963 20.2197 10.1741 19.905 10.3531 19.5713C10.5015 19.3047 10.638 19.0321 10.7886 18.7659C10.9245 18.5375 11.0477 18.3014 11.1575 18.0589C11.3179 17.6812 11.4579 17.2967 11.5843 16.9054C11.7243 16.4653 11.8773 16.0284 12.0156 15.5869C12.1304 15.2212 12.2298 14.8496 12.3152 14.4765C12.4126 14.0513 12.4689 13.6187 12.5221 13.1861C12.5711 12.8925 12.6454 12.6038 12.7115 12.3137C12.7878 11.9813 12.8614 11.6481 12.9387 11.316C13.0879 10.6656 13.2517 10.022 13.3802 9.36705C13.495 8.78298 13.6014 8.19607 13.6931 7.60773C13.7541 7.22073 13.8157 6.82731 13.8461 6.43674C13.8524 6.35312 13.857 6.26997 13.8598 6.1873C14.067 6.2126 14.275 6.23184 14.4847 6.23968C14.6821 6.24716 14.8796 6.25001 15.0763 6.25251C15.2055 6.25251 15.3322 6.26391 15.4586 6.27781C15.8234 6.34302 16.185 6.4093 16.5463 6.48556C16.7909 6.53452 17.0383 6.56832 17.287 6.58677C17.4215 6.59817 17.5569 6.59924 17.6921 6.60744L17.7239 6.61385C18.0208 6.67265 18.2984 6.66054 18.5662 6.50124C18.8162 6.3523 18.9979 6.1084 19.0714 5.82314C19.1449 5.53788 19.104 5.23461 18.9579 4.97997C18.8239 4.7462 18.5729 4.52241 18.305 4.46895Z" fill="#262626"/>
<path d="M39.646 3.68139C39.5054 3.64229 39.3585 3.63205 39.2139 3.65126C39.0693 3.67047 38.9299 3.71875 38.8038 3.79329C38.5839 3.92407 38.3413 4.1892 38.3021 4.45789C38.2478 4.82814 38.1649 5.19376 38.1008 5.56259C38.0109 6.05968 37.9495 6.56169 37.917 7.06605C37.8932 7.48013 37.8925 7.89635 37.8761 8.31079C37.8596 8.73842 37.833 9.16391 37.7966 9.58833C37.7616 9.98958 37.721 10.3891 37.6825 10.7892C37.6422 11.2048 37.6215 11.622 37.5879 12.0365C37.5179 12.9537 37.3929 13.8671 37.2729 14.7779C37.2855 14.6799 37.2988 14.5809 37.3114 14.4825C37.2275 15.0509 37.1138 15.6142 36.9708 16.1702C36.8461 16.6282 36.6984 17.0793 36.5283 17.5219C36.3513 17.9271 36.1358 18.3136 35.8848 18.6761C35.6101 19.0025 35.306 19.3019 34.9764 19.5705C34.6326 19.8321 34.2646 20.0589 33.8775 20.2476C33.6299 20.3422 33.3759 20.4182 33.1175 20.475C32.834 20.496 32.5492 20.4917 32.2664 20.4621C32.1011 20.4365 31.9375 20.4008 31.7763 20.3552C31.6055 20.3053 31.4388 20.244 31.2726 20.1799C31.1774 20.1315 31.0855 20.0767 30.9974 20.016C30.6998 19.7637 30.4219 19.4893 30.1156 19.247C29.7077 18.9262 29.2817 18.6283 28.8679 18.3144C28.6733 18.1373 28.4933 17.9442 28.3298 17.7371C28.2689 17.6573 28.2076 17.5778 28.146 17.4987C27.824 17.0607 27.5288 16.6078 27.2341 16.1492C27.0975 15.9354 26.967 15.7215 26.8346 15.5077C26.6541 15.2193 26.4588 14.9409 26.2493 14.6735C26.0753 14.4346 25.9242 14.1792 25.7981 13.9109C25.6727 13.6383 25.5397 13.3678 25.4084 13.0974C25.1452 12.5557 24.8767 12.0183 24.6309 11.4688C24.4065 10.9165 24.2105 10.3527 24.0438 9.77969C23.8506 9.09656 23.6636 8.41521 23.4448 7.73991C23.3542 7.45982 23.197 7.22712 22.9425 7.07531C22.8167 7.00089 22.6777 6.95268 22.5334 6.93347C22.3892 6.91426 22.2426 6.92444 22.1023 6.96342C21.5502 7.11808 21.1532 7.75524 21.3395 8.33075C21.5649 9.02778 21.7596 9.73051 21.9567 10.4354C22.1713 11.1814 22.4382 11.9108 22.7552 12.6181C23.0139 13.2018 23.3048 13.7691 23.581 14.3449C23.7109 14.6144 23.8355 14.8863 23.97 15.1539C24.145 15.501 24.3652 15.8053 24.598 16.1093C24.9064 16.5369 25.1616 17.003 25.4578 17.4413C25.6262 17.6908 25.7767 17.9488 25.9479 18.1964C26.18 18.536 26.4359 18.8614 26.6894 19.1842C26.8161 19.3492 26.9463 19.5107 27.0877 19.6643C27.2978 19.8916 27.5502 20.0791 27.797 20.2612C28.0771 20.4664 28.3571 20.6681 28.6372 20.8748C28.8728 21.0701 29.0972 21.2764 29.3272 21.4806C29.5239 21.6545 29.7285 21.8184 29.9409 21.9724C30.1159 22.1024 30.3575 22.1962 30.5584 22.2746C30.655 22.3123 30.7506 22.3508 30.8479 22.3865C31.3482 22.5721 31.8817 22.6598 32.4107 22.7029C33.1337 22.761 33.8601 22.6461 34.5318 22.3676C34.8205 22.2579 35.1006 22.1258 35.3695 21.9724C35.8688 21.6724 36.3379 21.323 36.7698 20.9293C37.1702 20.5756 37.5253 20.172 37.8267 19.728C38.0687 19.3663 38.2762 18.9818 38.4463 18.5799C38.6498 18.0997 38.8272 17.6085 38.9777 17.1085C39.1209 16.6324 39.2228 16.1506 39.3205 15.6631C39.4325 15.1029 39.4889 14.5338 39.561 13.9672C39.6268 13.443 39.6968 12.9202 39.7455 12.3939C39.7885 11.9246 39.8116 11.4542 39.8505 10.9842C39.8893 10.5141 39.9457 10.0356 39.9863 9.56124C40.028 9.0684 40.0525 8.57378 40.0717 8.07988C40.0903 7.61448 40.0868 7.14837 40.1326 6.68368C40.1358 6.64804 40.1396 6.61241 40.1431 6.57499C40.2223 6.06469 40.3357 5.56152 40.411 5.04979C40.4236 4.95144 40.4369 4.85273 40.4495 4.75437C40.4496 4.51105 40.3712 4.27441 40.2265 4.08078C40.0817 3.88714 39.8786 3.74721 39.6481 3.68246L39.646 3.68139Z" fill="#262626"/>
<path d="M62.2853 23.9631C62.2205 23.8865 62.1512 23.814 62.0777 23.7461C61.9368 23.6212 61.8023 23.4891 61.6748 23.3501C61.4304 23.0934 61.1995 22.8237 60.983 22.5423C60.5366 21.9028 60.1339 21.2328 59.7777 20.5371C59.6265 20.247 59.4977 19.9448 59.3527 19.6512C59.2641 19.473 59.1731 19.2977 59.0727 19.1252C58.9639 18.9415 58.8446 18.7646 58.7152 18.5953C58.7352 18.622 58.7555 18.6484 58.7758 18.6751C58.6274 18.4613 58.4922 18.2375 58.349 18.0209C58.139 17.7066 57.8918 17.4083 57.6489 17.1196C57.4476 16.8809 57.2533 16.646 57.0135 16.4426C56.725 16.1988 56.4369 15.9551 56.1331 15.7316C55.8385 15.4906 55.5661 15.2228 55.3191 14.9316C55.2369 14.8119 55.1588 14.6886 55.0769 14.5678C54.9428 14.3689 54.7968 14.1758 54.6515 13.9851C54.3172 13.5404 53.972 13.0978 53.5576 12.7276C53.35 12.5415 53.1333 12.3666 52.9201 12.1859C52.7167 12.0131 52.5164 11.8399 52.3085 11.6731L52.3837 11.7326C52.2875 11.6549 52.1909 11.578 52.0932 11.5028C52.0362 11.4576 51.9787 11.4131 51.9206 11.3691C51.7274 11.2088 51.5383 11.0431 51.3493 10.8799C51.2407 10.7869 51.1259 10.7017 51.0212 10.604C50.9422 10.53 50.8669 10.4519 50.7958 10.3699C51.0637 10.3525 51.3293 10.3084 51.5887 10.2381C52.0088 10.1187 52.4037 9.90523 52.779 9.68536C52.891 9.62086 52.989 9.53498 53.1025 9.47511C53.2425 9.40028 53.3755 9.30834 53.5159 9.23208C53.6563 9.15582 53.7858 9.04856 53.9255 8.96446C54.1044 8.85755 54.2822 8.74708 54.4558 8.63233C54.8059 8.40035 55.1627 8.16622 55.4518 7.85655C55.6198 7.66827 55.7781 7.4713 55.9262 7.26643C56.1086 7.02482 56.2325 6.72691 56.327 6.44289C56.4173 6.16814 56.445 5.87878 56.4737 5.59156C56.5102 5.21176 56.4798 4.82838 56.3841 4.45942C56.3038 4.14338 56.1673 3.84503 55.9811 3.57922C55.8001 3.32158 55.6041 3.08033 55.365 2.87614C55.1783 2.70938 54.9738 2.56461 54.7552 2.44459C54.5262 2.32557 54.2861 2.24432 54.0466 2.15309C53.9329 2.10344 53.8188 2.05486 53.7042 2.00734C53.5537 1.94534 53.392 1.91148 53.2383 1.85767C53.0846 1.80386 52.9274 1.74649 52.7692 1.69589C52.6109 1.64529 52.4702 1.5758 52.312 1.53268C52.0183 1.45428 51.7281 1.44751 51.4305 1.44751H51.3465C51.1714 1.44751 50.9964 1.44751 50.8214 1.45713C50.5613 1.47162 50.3025 1.50353 50.0466 1.55263C49.8142 1.59647 49.5975 1.69981 49.3661 1.74435C49.2474 1.77037 49.1317 1.80907 49.0209 1.85981C48.8767 1.92182 48.7409 1.98525 48.6096 2.05688C48.4933 1.84007 48.3094 1.66888 48.0869 1.57039C47.8643 1.4719 47.6159 1.45172 47.3809 1.51304C47.1458 1.57436 46.9375 1.71368 46.789 1.90898C46.6404 2.10428 46.5601 2.34441 46.5606 2.59141C46.5582 3.03163 46.5563 3.4722 46.5546 3.91313C46.5546 4.15794 46.5592 4.40383 46.5546 4.649C46.4184 4.90201 46.2872 5.15431 46.2375 5.44581C46.2105 5.60154 46.1447 5.74729 46.0999 5.89838C46.0681 6.00267 46.043 6.10897 46.025 6.21661C45.9339 6.77751 45.9602 7.3377 45.9497 7.90252C45.9252 8.00194 45.8958 8.10065 45.8723 8.20008C45.8263 8.41582 45.794 8.63436 45.7757 8.85434C45.7568 9.03573 45.7568 9.21854 45.7529 9.40135C45.7221 9.49044 45.6829 9.57774 45.6584 9.66933C45.6021 9.87779 45.5842 10.1023 45.5678 10.3175C45.5492 10.5738 45.5545 10.8314 45.5485 11.0887C45.4905 11.3811 45.4062 11.6674 45.2964 11.9439C45.2149 12.129 45.1459 12.3195 45.0899 12.5141C45.0474 12.6848 45.0171 12.8585 44.9992 13.0337C44.9579 13.1972 44.897 13.3544 44.8592 13.5205C44.8205 13.7077 44.7941 13.8973 44.7801 14.0881C44.6842 14.4919 44.5 14.866 44.4384 15.2798C44.3947 15.5657 44.3673 15.854 44.3561 16.1432C44.3477 16.3545 44.3582 16.5691 44.346 16.7807C44.2644 17.2479 44.1902 17.7162 44.1633 18.1912C44.1461 18.4912 44.1632 18.797 44.1443 19.0981C44.1016 19.3476 44.0586 19.597 43.9984 19.8393C43.9085 20.2039 43.8397 20.5735 43.7922 20.9462C43.8048 20.8478 43.8181 20.7491 43.8307 20.6508C43.7957 20.9191 43.6836 21.1703 43.6392 21.4387C43.589 21.746 43.5588 22.0563 43.5489 22.3677C43.5422 22.5605 43.5489 22.7543 43.5468 22.9478C43.4638 23.121 43.4417 23.2685 43.4249 23.4752C43.4032 23.7578 43.5538 24.0675 43.7453 24.2617C43.9502 24.47 44.2279 24.587 44.5175 24.587C44.8071 24.587 45.0849 24.47 45.2898 24.2617C45.3886 24.1619 45.4661 24.0426 45.5177 23.911C45.525 23.8975 45.532 23.884 45.539 23.8704C45.6616 23.6309 45.7253 23.4118 45.7253 23.1413C45.7253 23.0234 45.7253 22.9058 45.7253 22.7878C45.7253 22.5195 45.7312 22.2508 45.7547 21.9835C45.7719 21.8909 45.7929 21.7996 45.8174 21.7084C45.838 21.6322 45.8632 21.5573 45.8874 21.4825C45.9258 21.3443 45.9517 21.2028 45.9647 21.0598C46.0124 20.788 46.0855 20.5232 46.1471 20.2541C46.1842 20.0948 46.2007 19.9334 46.2333 19.7713C46.2909 19.515 46.3229 19.2534 46.3288 18.9905C46.3264 18.5776 46.3452 18.1648 46.3852 17.7539C46.4055 17.6239 46.4289 17.4949 46.4552 17.3655C46.5063 17.0913 46.5328 16.8129 46.5343 16.5338C46.5375 16.2772 46.5427 16.0206 46.5655 15.7655C46.6147 15.5328 46.6828 15.3047 46.7689 15.0834C46.8126 14.9648 46.8417 14.8418 46.8767 14.7199C46.9296 14.5396 46.9432 14.3511 46.9597 14.164C46.9754 14.0796 46.9947 13.9958 47.0185 13.9117C47.0367 13.8454 47.0605 13.7795 47.0822 13.714C47.1206 13.582 47.1451 13.4463 47.1554 13.3091C47.1901 13.124 47.2419 12.9427 47.3101 12.7675C47.4092 12.5424 47.4944 12.3113 47.5653 12.0754C47.5971 11.9635 47.6143 11.8467 47.6395 11.7333C47.6903 11.527 47.7221 11.3163 47.7344 11.104C47.7431 10.8407 47.7344 10.578 47.7543 10.3158C47.764 10.266 47.7769 10.217 47.7928 10.1689C48.0189 10.38 48.2308 10.6062 48.4272 10.846C48.6225 11.1118 48.8123 11.3827 49.0122 11.645C48.9547 11.5701 48.8984 11.4953 48.8413 11.4197C49.0083 11.6529 49.1879 11.8763 49.3794 12.089C49.5079 12.2265 49.6612 12.3384 49.803 12.4592C50.1247 12.7372 50.4496 13.0105 50.7853 13.2714C50.8396 13.3141 50.8942 13.3569 50.9491 13.3989L51.029 13.4613C51.344 13.725 51.6591 13.9912 51.9647 14.2649C52.271 14.5446 52.5541 14.8495 52.8112 15.1764C52.8443 15.2213 52.8778 15.266 52.9117 15.3104C53.2204 15.7452 53.5026 16.2052 53.8506 16.6079C54.1985 17.0106 54.6148 17.3324 55.0293 17.6542C55.3135 17.8886 55.6097 18.1174 55.8527 18.3968C56.0532 18.627 56.244 18.8661 56.4327 19.1067C56.5104 19.2161 56.5896 19.3265 56.6585 19.4413C56.798 19.6697 56.9499 19.8899 57.1136 20.1009C57.0562 20.0261 56.9992 19.9516 56.9421 19.8757C57.2603 20.3254 57.4987 20.8343 57.7294 21.3339C57.9868 21.8944 58.2847 22.4347 58.6207 22.9503C58.7856 23.1998 58.9407 23.4581 59.115 23.7019C59.3363 24.0087 59.5736 24.3055 59.8215 24.5903C60.007 24.8019 60.1971 25.0125 60.398 25.2089C60.4835 25.293 60.5822 25.36 60.6624 25.4491C60.7996 25.6027 60.9316 25.7566 61.1175 25.8542C61.3849 25.9932 61.6639 26.0492 61.9576 25.9669C62.2322 25.8887 62.4663 25.7053 62.6109 25.4551C62.893 24.9698 62.766 24.2624 62.2853 23.9631ZM50.3992 8.16373C50.2353 8.1705 50.068 8.18226 49.9028 8.17763C49.7851 8.14876 49.6693 8.11419 49.5527 8.0864C49.3696 8.04696 49.1839 8.021 48.9971 8.00871C48.8532 7.96809 48.717 7.90573 48.5693 7.87437C48.4293 7.84372 48.2805 7.82804 48.1384 7.80987C48.1384 7.7386 48.1384 7.66733 48.1384 7.59784C48.1384 7.30028 48.1335 7.00023 48.1548 6.70303C48.1809 6.58476 48.2131 6.46795 48.2511 6.35309C48.2938 6.23901 48.3278 6.12179 48.353 6.00244C48.3607 5.95647 48.3708 5.91157 48.3827 5.86738C48.3974 5.84065 48.4128 5.81428 48.4286 5.78791C48.526 5.62531 48.6049 5.45196 48.6638 5.2712C48.7303 5.0638 48.7391 4.85105 48.7402 4.63688C49.0696 4.39029 49.4014 4.13799 49.762 3.94413C49.9182 3.89317 50.0771 3.85932 50.236 3.808C50.3801 3.75925 50.527 3.71926 50.6757 3.68827C51.0189 3.66089 51.3634 3.65399 51.7074 3.6676C51.9335 3.72818 52.1488 3.82689 52.3725 3.89567C52.5192 3.94092 52.6603 4.00436 52.8066 4.04961C52.9211 4.08525 53.0338 4.11768 53.1452 4.15973C53.2379 4.20106 53.3307 4.2424 53.4252 4.2791C53.4928 4.30547 53.5618 4.32686 53.6304 4.35038C53.7169 4.39578 53.8009 4.44598 53.8821 4.50076C53.9768 4.58755 54.0661 4.68026 54.1495 4.77836C54.1845 4.83288 54.2174 4.88812 54.2476 4.94513C54.2712 5.02222 54.2909 5.10048 54.3067 5.17961C54.3109 5.3145 54.306 5.44952 54.292 5.58372C54.2742 5.67103 54.2511 5.7562 54.2248 5.84172C54.1831 5.92213 54.1372 6.00017 54.0872 6.07549C53.9612 6.22576 53.8249 6.36675 53.6794 6.49741C53.4672 6.64601 53.2418 6.77394 53.0265 6.91791C52.7937 7.07257 52.5553 7.21939 52.3186 7.36585C52.1292 7.48202 51.9335 7.58501 51.7561 7.71722C51.5812 7.83816 51.3952 7.94162 51.2008 8.02618C51.0708 8.0738 50.9374 8.11121 50.8018 8.13807C50.6677 8.14983 50.5336 8.15767 50.3992 8.16373Z" fill="#262626"/>
<path d="M82.2229 11.877C82.0076 11.8952 81.7874 11.8681 81.5721 11.8499C81.4565 11.8399 81.3414 11.8264 81.2265 11.8118C80.4476 11.6946 79.6733 11.5235 78.8835 11.5207C78.1879 11.5182 77.4912 11.5281 76.7967 11.5563C76.1081 11.5852 75.4268 11.6568 74.7424 11.7409C74.0073 11.831 73.2525 11.8631 72.5145 11.7897C72.0465 11.7134 71.5875 11.6044 71.1261 11.4907C71.0359 11.4684 70.9434 11.4571 70.8506 11.4572C70.3668 11.4572 69.9184 11.7648 69.7822 12.2672C69.6278 12.8374 69.9663 13.4927 70.545 13.6353C71.4177 13.8491 72.309 14.0629 73.2122 14.054C73.6071 14.0508 74.0055 14.0351 74.399 14.0009C74.4725 13.9945 74.5464 13.9866 74.6199 13.9784C74.5992 14.0444 74.5782 14.1103 74.5562 14.1762C74.4414 14.5187 74.3335 14.8622 74.2061 15.2C74.0632 15.5093 73.8919 15.8042 73.6943 16.0806C73.5049 16.3179 73.3134 16.552 73.131 16.7951C73.0095 16.9572 72.893 17.1222 72.7743 17.2854C72.5361 17.5671 72.2735 17.8265 71.9898 18.0605C71.794 18.2082 71.5866 18.3393 71.3698 18.4525C71.2362 18.5009 71.0996 18.5402 70.9609 18.5701C70.8209 18.5996 70.6808 18.6196 70.5383 18.6392C70.2363 18.6749 69.9317 18.6835 69.6282 18.6649C69.0085 18.5508 68.4029 18.3395 67.8197 18.1018C67.4903 17.9401 67.1756 17.7493 66.879 17.5316C66.7096 17.3875 66.5516 17.2299 66.4064 17.0605C66.3255 16.9495 66.2523 16.8328 66.1876 16.7113C66.1193 16.5791 66.057 16.4448 65.9972 16.309C65.8277 15.8746 65.6716 15.4352 65.5421 14.9858C65.4087 14.5183 65.332 14.0322 65.262 13.5497C65.1929 12.9862 65.1525 12.4195 65.1409 11.8517C65.1321 11.3635 65.1759 10.8728 65.2343 10.3874C65.3121 9.85984 65.4435 9.34188 65.6264 8.84193C65.8128 8.40352 66.0215 7.97531 66.2517 7.55906C66.5062 7.10724 66.7868 6.67114 67.0918 6.25302C67.3751 5.90379 67.6719 5.56775 68.0084 5.27162C68.2145 5.13125 68.4309 5.00712 68.6556 4.90029C69.3246 4.64265 70.0167 4.4969 70.7239 4.39178C71.1784 4.33396 71.6366 4.31168 72.0944 4.32514C72.6399 4.34581 73.1846 4.37966 73.7293 4.4128C74.3244 4.44844 74.8219 3.87827 74.8219 3.30097C74.8215 3.00608 74.7065 2.72333 74.5019 2.5145C74.288 2.29712 74.0255 2.20625 73.7293 2.18879C73.2122 2.15707 72.6948 2.12393 72.1778 2.10505C72.0662 2.10077 71.9548 2.09863 71.8434 2.09863C71.4392 2.09916 71.0355 2.12606 70.6346 2.17917C70.0878 2.25044 69.5417 2.32955 69.005 2.46033C68.4843 2.59185 67.9775 2.77519 67.492 3.00769C66.4768 3.48129 65.7504 4.38928 65.0957 5.27767C64.545 6.02602 64.1116 6.86131 63.7423 7.71336C63.5053 8.25858 63.3149 8.80167 63.1951 9.38502C63.0901 9.8889 63.0394 10.4078 62.9977 10.9206C62.9102 11.9821 62.9977 13.0337 63.1486 14.0857C63.2151 14.5761 63.3086 15.0624 63.4286 15.5421C63.54 15.9797 63.7003 16.4056 63.8613 16.825C64.0469 17.3093 64.2426 17.8046 64.5506 18.224C64.7421 18.4856 64.9357 18.7347 65.165 18.9606C65.3943 19.1866 65.6653 19.3769 65.9285 19.5589C66.6637 20.0671 67.5018 20.3611 68.3441 20.6351C68.8025 20.7891 69.2799 20.8769 69.7622 20.896C70.2593 20.9088 70.7424 20.84 71.2326 20.7624C71.3985 20.7356 71.5686 20.7178 71.7311 20.6701C71.9899 20.5898 72.242 20.4887 72.4851 20.3679C72.851 20.1933 73.1853 19.9274 73.4951 19.6683C73.7712 19.4458 74.0278 19.1991 74.2618 18.9311C74.4949 18.6556 74.699 18.3559 74.9119 18.064C75.1863 17.7191 75.4639 17.3781 75.717 17.0185C76.0107 16.6023 76.1956 16.1098 76.3724 15.6344C76.5082 15.2688 76.6216 14.8964 76.7449 14.5272C76.8251 14.2817 76.8869 14.0303 76.9297 13.7753C77.1446 13.7675 77.3598 13.7615 77.5752 13.7575C78.2754 13.7429 78.9724 13.7279 79.6704 13.7931C80.024 13.8494 80.3762 13.915 80.7308 13.9663C80.9899 14.0041 81.2503 14.0376 81.5115 14.0654C81.745 14.0885 81.9901 14.1188 82.2246 14.0985C82.5229 14.0736 82.7798 13.9952 82.9972 13.7728C83.2019 13.5643 83.3169 13.2816 83.3169 12.9869C83.3169 12.6921 83.2019 12.4094 82.9972 12.2009C82.8054 12.0092 82.4998 11.8546 82.2229 11.877Z" fill="#262626"/>
<path d="M97.3184 19.0909C97.2911 19.1076 97.2634 19.1237 97.2354 19.1386C97.0778 19.1916 96.9172 19.2345 96.7544 19.2673C96.2121 19.3107 95.6587 19.2819 95.116 19.2819C94.4428 19.2819 93.7689 19.2819 93.0957 19.2894C92.4043 19.2961 91.7133 19.31 91.0233 19.3439C90.5332 19.3681 90.0431 19.4308 89.5509 19.4344C89.5397 19.3714 89.5271 19.3085 89.5131 19.2455C89.4395 18.9209 89.3128 18.6087 89.2169 18.2901C89.0318 17.666 88.8929 17.0286 88.8014 16.3833C88.7394 15.8074 88.6613 15.2362 88.5507 14.6671C88.5159 14.4865 88.4817 14.3053 88.4481 14.1233L88.5003 14.1044C88.793 14.0025 89.0972 13.9291 89.394 13.8432C89.6909 13.7573 89.9752 13.6451 90.2643 13.5471C90.5586 13.4513 90.8606 13.382 91.1668 13.34L90.8766 13.3792C91.2893 13.3233 91.693 13.2652 92.0959 13.1586C92.4278 13.071 92.7467 12.9259 93.0628 12.7937C93.7217 12.5183 94.3434 12.1676 94.9907 11.8672C95.2458 11.7617 95.5095 11.679 95.7787 11.6202C96.2177 11.5978 96.6574 11.6288 97.0968 11.6374C97.6919 11.6488 98.1894 11.1228 98.1894 10.5252C98.1894 9.91046 97.6923 9.42475 97.0968 9.41334C96.7694 9.40693 96.4414 9.38626 96.1134 9.38626C96.063 9.38626 96.0126 9.38626 95.9622 9.38626C95.4294 9.39909 94.9256 9.51776 94.4313 9.71126C93.7024 9.99634 93.0212 10.3883 92.3119 10.7194C92.1054 10.8038 91.8988 10.8847 91.6877 10.9581C91.3923 11.0611 91.086 11.1192 90.7775 11.1684L90.9057 11.1506C90.5612 11.1922 90.2196 11.2552 89.8827 11.3391C89.5708 11.4228 89.2666 11.5451 88.9617 11.6488C88.7096 11.735 88.4516 11.8016 88.1961 11.8758C88.1694 11.4213 88.1664 10.9657 88.1873 10.5109C88.2104 10.0313 88.2521 9.55446 88.3067 9.0773C88.3613 8.60014 88.3981 8.11835 88.4285 7.6362L88.5374 7.48939C88.6739 7.3137 88.8108 7.13731 88.9631 6.97552C89.1453 6.78566 89.3398 6.6084 89.5453 6.44491C89.8218 6.2311 90.1022 6.02726 90.3907 5.83269C90.6729 5.64311 90.9491 5.45567 91.2512 5.306C91.3817 5.25959 91.5153 5.22267 91.651 5.19553C91.7655 5.18555 91.8799 5.17985 91.9954 5.17593C92.1633 5.17502 92.3305 5.15663 92.4947 5.12105C92.6504 5.08256 92.7968 4.98564 92.9452 4.92078L92.9102 4.93646C93.0141 4.89131 93.1156 4.84076 93.2144 4.78501C93.7318 4.48567 93.9048 3.78151 93.6072 3.26337C93.5098 3.09614 93.371 2.95778 93.2048 2.86206C93.0385 2.76635 92.8506 2.71661 92.6596 2.71779C92.4677 2.71765 92.2792 2.76824 92.1124 2.86461C92.0816 2.88207 92.0522 2.90025 92.0221 2.91913C91.9919 2.93802 91.958 2.94586 91.9261 2.95976C91.5904 2.97829 91.2571 3.00074 90.926 3.08199C90.3063 3.23487 89.7749 3.58587 89.2516 3.93724C88.9883 4.11542 88.7285 4.30001 88.4786 4.49636C88.1681 4.7394 87.8513 4.9753 87.5663 5.24934C87.3651 5.4514 87.1786 5.66804 87.0083 5.89755C86.7391 6.24642 86.4769 6.60028 86.2178 6.95592C86.0526 7.18328 86.0368 7.55103 86.1082 7.81117C86.1336 7.9046 86.1709 7.99422 86.2192 8.07773C86.208 8.2559 86.1947 8.43408 86.1754 8.60976C86.1362 8.97146 86.0925 9.33281 86.0575 9.69522C85.984 10.4362 85.9699 11.182 86.0151 11.9253C86.0627 12.6551 86.1051 13.381 86.2391 14.0991C86.3606 14.7476 86.4842 15.3987 86.5812 16.0512C86.6725 16.7803 86.759 17.5044 86.9375 18.2189C87.0237 18.562 87.1126 18.9027 87.2257 19.2373C87.3188 19.5042 87.3937 19.7774 87.4497 20.0548C87.4651 20.2455 87.4749 20.4425 87.5267 20.6196C87.6937 21.187 88.1999 21.5162 88.752 21.5925C89.0445 21.6376 89.3401 21.6596 89.6359 21.6584C89.8712 21.6538 90.1078 21.6253 90.3424 21.6071C91.1714 21.5412 92.0039 21.5209 92.8349 21.5109C93.6989 21.5013 94.5619 21.5013 95.4255 21.5013C95.5508 21.5013 95.6769 21.5013 95.8032 21.5013C96.0546 21.5013 96.3063 21.5013 96.5587 21.4984C97.2098 21.4917 97.8493 21.3225 98.4211 21.0056C98.9413 20.7119 99.109 19.9989 98.8128 19.4843C98.5079 18.958 97.8393 18.7962 97.3184 19.0909Z" fill="#262626"/>
<path d="M122.451 2.03118C122.459 1.78183 122.49 1.53383 122.545 1.29068C122.611 1.00238 122.465 0.638546 122.289 0.422238C122.098 0.188414 121.825 0.0394181 121.527 0.00672878C121.426 -0.00452771 121.323 -0.0016506 121.221 0.0152813C121.02 0.0485508 120.831 0.135621 120.674 0.26758L120.474 0.486382C120.358 0.650146 120.286 0.841834 120.264 1.04265C120.143 1.57718 120.155 2.11385 120.202 2.65658C120.234 3.01294 120.298 3.36502 120.327 3.72208C120.317 4.09234 120.251 4.45439 120.173 4.81823C120.093 5.19454 120.018 5.5737 119.952 5.95393C119.876 6.40365 119.809 6.85516 119.763 7.30808C119.716 7.77847 119.643 8.24636 119.603 8.71711C119.557 9.24238 119.51 9.76657 119.441 10.2901C119.377 10.7697 119.254 11.2415 119.143 11.7116C118.912 12.6833 118.723 13.664 118.527 14.6436C118.322 15.6771 118.151 16.7194 117.954 17.7557C117.806 17.5544 117.661 17.3505 117.512 17.1499C117.297 16.8595 117.059 16.5815 116.836 16.2975C116.591 15.985 116.346 15.6667 116.062 15.3866C114.915 14.2463 113.619 13.287 112.422 12.2058C112.116 11.9043 111.828 11.5854 111.559 11.2508C111.257 10.8706 110.981 10.4747 110.713 10.0695C110.193 9.28371 109.698 8.47978 109.173 7.699C108.922 7.32839 108.674 6.9528 108.375 6.61925C108.019 6.22084 107.544 5.764 106.975 5.76649C106.873 5.7697 106.77 5.77219 106.668 5.77576C106.545 5.80815 106.424 5.8468 106.305 5.89157C106.126 5.95678 105.909 6.16882 105.796 6.3192C105.665 6.49274 105.577 6.69622 105.499 6.8997C105.423 7.09641 105.343 7.28813 105.285 7.49125C105.213 7.74182 105.155 7.99615 105.11 8.25314C105.048 8.6159 105.007 8.98224 104.935 9.34251C104.834 9.73842 104.72 10.1326 104.59 10.5185C104.447 10.9461 104.248 11.3484 104.052 11.7522C103.839 12.1916 103.63 12.6331 103.457 13.0917C103.258 13.6206 103.082 14.1569 102.918 14.6982C102.597 15.7647 102.393 16.8684 102.18 17.9613C102.08 18.4745 101.944 18.9816 101.827 19.4911C101.715 19.9765 101.596 20.4693 101.569 20.9689C101.542 21.4686 101.529 21.9739 101.543 22.4795C101.545 22.5843 101.549 22.6884 101.551 22.7921C101.583 22.9965 101.669 23.1885 101.799 23.348C101.993 23.5866 102.272 23.7371 102.574 23.7664C102.877 23.7956 103.179 23.7013 103.413 23.5041C103.617 23.3319 103.83 23.0119 103.823 22.7286C103.802 22.1011 103.824 21.4729 103.888 20.8485C103.947 20.3068 104.098 19.7677 104.223 19.2392C104.464 18.2254 104.652 17.2016 104.881 16.1856C105.064 15.4801 105.281 14.7844 105.532 14.1013C105.781 13.4456 106.081 12.8163 106.388 12.1866C106.668 11.6132 106.847 11.0067 107.018 10.3923C107.131 10.0065 107.219 9.61373 107.282 9.21636L107.307 9.0421C107.571 9.4341 107.829 9.83179 108.085 10.2298C108.597 11.0274 109.089 11.8537 109.678 12.596C109.842 12.802 110.005 13.003 110.179 13.199C110.357 13.4007 110.547 13.5874 110.737 13.7766C111.131 14.1686 111.557 14.531 111.98 14.8906C112.657 15.464 113.358 16.0078 114.016 16.6054C114.315 16.8905 114.596 17.195 114.856 17.5169C115.153 17.8918 115.451 18.2631 115.745 18.6391C115.99 18.9555 116.206 19.2959 116.452 19.6116C116.792 20.0538 117.191 20.4456 117.637 20.7754C117.762 20.8718 117.905 20.943 118.057 20.9853C118.153 21.0089 118.249 21.0331 118.345 21.0566C118.551 21.0785 118.759 21.0439 118.947 20.9565C119.309 20.8353 119.603 20.4715 119.742 20.1194C119.89 19.747 119.963 19.3454 120.044 18.9534C120.143 18.4773 120.23 17.9987 120.324 17.5212C120.508 16.5801 120.664 15.6325 120.847 14.6932C121.039 13.6968 121.25 12.7048 121.48 11.7173C121.588 11.2501 121.688 10.7861 121.75 10.3107C121.82 9.78261 121.851 9.25022 121.908 8.72103C122.006 7.82016 122.101 6.91574 122.264 6.02521C122.334 5.6464 122.412 5.26866 122.49 4.89164C122.598 4.37226 122.631 3.83953 122.587 3.31049C122.556 2.88144 122.482 2.45881 122.451 2.03118Z" fill="#262626"/>
<path d="M133.572 6.44769C133.697 6.3953 133.824 6.34826 133.953 6.30514C134.082 6.26202 134.215 6.22675 134.345 6.18149C134.488 6.13256 134.633 6.09246 134.781 6.0614C134.848 6.04679 134.914 6.02576 134.981 6.01471L135.046 6.00331C135.12 5.99405 135.194 5.98335 135.267 5.97195C135.32 5.97017 135.374 5.97195 135.427 5.96768C135.602 5.95841 135.777 5.93674 135.949 5.90282C136.034 5.88536 136.117 5.85721 136.202 5.83582C136.278 5.81658 136.354 5.80019 136.431 5.78201C136.703 5.71644 136.972 5.63341 137.246 5.57889C137.298 5.57569 137.349 5.57319 137.4 5.56749C137.547 5.55074 137.688 5.52615 137.831 5.50192C137.963 5.48672 138.094 5.46292 138.223 5.43065C138.307 5.40855 138.394 5.39252 138.48 5.37648C138.539 5.36829 138.598 5.35902 138.657 5.34797C138.695 5.34049 138.733 5.33194 138.77 5.32374C138.924 5.31729 139.079 5.32553 139.232 5.34833C139.315 5.36038 139.398 5.36728 139.481 5.369H139.878C140.099 5.369 140.322 5.36686 140.543 5.3861C140.65 5.40691 140.759 5.41977 140.868 5.42459C140.932 5.42459 140.996 5.42459 141.061 5.42459C141.194 5.42459 141.327 5.42625 141.461 5.42958C142.033 5.43671 142.511 4.93745 142.511 4.36052C142.511 4.07698 142.4 3.80506 142.203 3.60457C142.006 3.40408 141.739 3.29145 141.461 3.29145L141.108 3.28682H141.022C140.965 3.28682 140.908 3.28682 140.851 3.28397C140.675 3.25793 140.498 3.24152 140.32 3.23479C140.149 3.22945 139.978 3.23016 139.807 3.2298C139.765 3.2298 139.721 3.2298 139.679 3.2298C139.563 3.23404 139.447 3.23095 139.332 3.22054C139.175 3.19822 139.018 3.18442 138.86 3.1792C138.84 3.1792 138.821 3.1792 138.802 3.1792C138.702 3.1852 138.602 3.1971 138.503 3.21483C138.398 3.22695 138.297 3.23978 138.195 3.26223C138.157 3.27043 138.119 3.27862 138.081 3.28575C138.019 3.29395 137.957 3.30392 137.896 3.31746C137.848 3.3278 137.8 3.33885 137.752 3.3474C137.682 3.35951 137.612 3.37947 137.542 3.39479C137.472 3.40335 137.402 3.41332 137.332 3.42758L137.297 3.43506C137.258 3.43791 137.219 3.44005 137.18 3.44219C137.049 3.4529 136.919 3.47074 136.79 3.49564C136.753 3.5017 136.716 3.50598 136.679 3.51346C136.52 3.5466 136.363 3.59043 136.205 3.6307C136.068 3.66634 135.933 3.70803 135.793 3.73404C135.674 3.75649 135.559 3.79641 135.441 3.82527C135.398 3.82776 135.354 3.82919 135.311 3.83026C135.162 3.83799 135.013 3.85597 134.867 3.88407C134.753 3.89761 134.639 3.91115 134.526 3.93182C134.456 3.94465 134.386 3.95391 134.316 3.97316C134.157 4.01735 133.995 4.04835 133.838 4.10002C133.692 4.14813 133.544 4.19125 133.399 4.24007C133.245 4.29103 133.097 4.35018 132.948 4.41219C132.732 4.49835 132.52 4.59552 132.313 4.70333C132.219 4.75464 132.125 4.80632 132.029 4.85228C131.634 5.02155 131.253 5.22004 130.936 5.52223C130.818 5.63413 130.716 5.76313 130.604 5.88072C130.549 5.9381 130.492 5.99476 130.439 6.05391C130.327 6.17757 130.226 6.32118 130.128 6.45374C130.103 6.48938 130.079 6.52501 130.054 6.56065C130.009 6.62075 129.964 6.6811 129.919 6.74168L129.816 6.87852C129.72 6.99554 129.632 7.11965 129.553 7.24984C129.513 7.32111 129.466 7.38811 129.424 7.45795C129.382 7.5278 129.345 7.60726 129.303 7.68103C129.221 7.82357 129.169 7.98357 129.108 8.13716C129.078 8.21378 129.056 8.2961 129.032 8.37485C129.008 8.45361 128.973 8.53557 128.946 8.6161C128.921 8.70599 128.901 8.79709 128.886 8.88907C128.847 9.07237 128.819 9.2579 128.803 9.44463C128.795 9.5273 128.792 9.61069 128.79 9.69408C128.79 9.73648 128.788 9.77889 128.788 9.82094C128.79 9.9645 128.805 10.1076 128.831 10.2486C128.846 10.3217 128.865 10.3938 128.888 10.4645C128.899 10.5037 128.906 10.544 128.917 10.5832C128.929 10.6284 128.946 10.6719 128.959 10.7172C129 10.8444 129.05 10.9686 129.109 11.0889C129.124 11.1245 129.14 11.1601 129.157 11.1933C129.192 11.2613 129.225 11.329 129.262 11.3953C129.299 11.4616 129.332 11.5261 129.373 11.5892C129.413 11.6522 129.458 11.7093 129.498 11.7713C129.538 11.8333 129.583 11.8928 129.628 11.9512C129.681 12.0232 129.736 12.0924 129.795 12.1586L129.741 12.0874C129.777 12.1349 129.814 12.1812 129.85 12.2263C129.847 12.2217 129.843 12.2167 129.839 12.2117C129.876 12.2569 129.915 12.2993 129.958 12.3386C130.076 12.4515 130.211 12.5463 130.356 12.6198C130.559 12.7174 130.767 12.7979 130.974 12.8835L130.957 12.876C131.064 12.9213 131.173 12.9597 131.285 12.9911C131.457 13.0378 131.635 13.0463 131.81 13.0623L131.95 13.083C132.117 13.1115 132.279 13.1393 132.449 13.1607C132.501 13.1668 132.554 13.1696 132.605 13.1732C132.669 13.1836 132.733 13.1931 132.797 13.2017L132.875 13.2199C132.935 13.233 132.995 13.2423 133.056 13.2505C133.297 13.2994 133.541 13.3309 133.786 13.3449C133.954 13.3517 134.122 13.3506 134.29 13.351H135.066C135.147 13.3529 135.227 13.3597 135.307 13.3713C135.529 13.3945 135.752 13.4055 135.975 13.4041C136.092 13.4041 136.21 13.4041 136.325 13.4059H136.412C136.462 13.4059 136.513 13.4041 136.563 13.4059C136.693 13.4301 136.823 13.4575 136.953 13.48C137.113 13.5063 137.271 13.5449 137.425 13.5954C137.439 13.6033 137.453 13.6111 137.466 13.6197C137.529 13.6592 137.587 13.7063 137.649 13.7473C137.783 13.8363 137.936 13.8944 138.069 13.9892C138.201 14.084 138.33 14.1838 138.465 14.2743C138.588 14.3548 138.71 14.4379 138.828 14.5255L138.763 14.4742L138.868 14.5548C138.926 14.6068 138.981 14.6621 139.034 14.7205C139.063 14.7651 139.09 14.8115 139.114 14.8594C139.126 14.8843 139.14 14.9082 139.155 14.9311C139.225 15.0292 139.298 15.1242 139.374 15.2162C139.411 15.2611 139.451 15.3024 139.489 15.3462C139.574 15.4669 139.648 15.595 139.711 15.7289C139.739 15.8048 139.766 15.8815 139.793 15.9577C139.848 16.1078 139.903 16.2549 139.963 16.4028C139.965 16.4062 139.966 16.4096 139.967 16.4131L139.897 16.2464C139.932 16.3298 139.964 16.4142 139.998 16.498C140.031 16.5862 140.058 16.6764 140.08 16.7681C140.085 16.8393 140.087 16.9106 140.088 16.9819C140.088 17.0614 140.085 17.1422 140.093 17.221C140.103 17.3362 140.119 17.4507 140.142 17.5638C140.142 17.5938 140.142 17.624 140.142 17.654C140.117 17.7618 140.085 17.8679 140.046 17.9715C139.996 18.0917 139.947 18.2121 139.898 18.3328C139.875 18.3809 139.851 18.4283 139.824 18.4754C139.8 18.5007 139.775 18.5253 139.75 18.5495C139.575 18.6707 139.39 18.7783 139.207 18.8891C139.023 18.9999 138.845 19.109 138.656 19.2023C138.478 19.27 138.297 19.3288 138.116 19.3894C137.886 19.4671 137.66 19.564 137.418 19.6L137.52 19.5861C137.419 19.6011 137.319 19.6175 137.218 19.6332C137.107 19.6467 136.996 19.6617 136.885 19.6774L136.871 19.6809L136.898 19.6774L136.87 19.6813C136.83 19.6923 136.789 19.7037 136.748 19.7123C136.716 19.719 136.683 19.7223 136.651 19.7272C136.612 19.7329 136.574 19.7394 136.535 19.7468L136.5 19.754H136.493C136.477 19.7575 136.458 19.7615 136.443 19.7661H136.449H136.444C136.393 19.7808 136.34 19.7927 136.287 19.8017H136.275L136.245 19.8053C136.201 19.8106 136.158 19.8163 136.115 19.8213L136.064 19.827C136.012 19.8327 135.959 19.8381 135.907 19.8406C135.85 19.8443 135.793 19.8443 135.736 19.8406L135.642 19.8441C135.572 19.8459 135.502 19.8552 135.432 19.8627C135.349 19.8712 135.265 19.8751 135.181 19.8766C135.124 19.8766 135.064 19.8808 135.006 19.8766C134.95 19.8684 134.894 19.8616 134.837 19.8562C134.809 19.8534 134.782 19.852 134.754 19.8505C134.624 19.826 134.496 19.7971 134.368 19.77C134.214 19.7394 134.061 19.7006 133.911 19.6538C133.759 19.6027 133.604 19.5646 133.446 19.5398C133.273 19.5105 133.098 19.4908 132.923 19.4806C132.831 19.4774 132.739 19.476 132.646 19.4757H132.621C132.491 19.4757 132.364 19.4824 132.235 19.4928C132.1 19.5038 131.968 19.5284 131.832 19.5316C131.708 19.5359 131.584 19.5362 131.46 19.5362C131.244 19.5362 131.032 19.5815 130.818 19.6132C130.698 19.6303 130.577 19.6488 130.456 19.6709C130.344 19.6913 130.233 19.7223 130.12 19.7386C129.98 19.7586 129.844 19.7868 129.707 19.8135C129.591 19.8363 129.477 19.8659 129.361 19.8848L129.341 19.8873C129.268 19.8965 129.193 19.9061 129.119 19.9161C129.011 19.9279 128.901 19.9332 128.793 19.9443C128.643 19.9596 128.493 19.9639 128.342 19.966C128.216 19.966 128.089 19.966 127.962 19.966C127.842 19.966 127.717 19.9746 127.597 19.9642C127.541 19.9564 127.484 19.9496 127.428 19.9443C127.387 19.9407 127.346 19.9403 127.305 19.9375C127.175 19.919 127.044 19.9085 126.913 19.9058C126.868 19.9058 126.823 19.9058 126.778 19.9058C126.708 19.9058 126.636 19.9083 126.566 19.9058C126.519 19.899 126.472 19.8926 126.426 19.8869C126.415 19.884 126.404 19.8808 126.393 19.8769C126.34 19.8598 126.287 19.8473 126.232 19.8395C126.211 19.8335 126.19 19.8287 126.169 19.8252L125.889 19.7871C125.703 19.7867 125.52 19.837 125.359 19.9329C125.24 20.0037 125.136 20.0978 125.052 20.2096C124.969 20.3215 124.908 20.449 124.873 20.5848C124.838 20.7207 124.83 20.8622 124.849 21.0013C124.867 21.1405 124.913 21.2745 124.983 21.3957C125.037 21.467 125.092 21.5382 125.147 21.612C125.275 21.743 125.435 21.8377 125.61 21.8868C125.634 21.8903 125.657 21.8954 125.68 21.9021C125.726 21.9156 125.773 21.9257 125.82 21.9324C125.855 21.9416 125.888 21.952 125.923 21.9584C126.049 21.9849 126.177 22.004 126.305 22.0154H126.334C126.417 22.031 126.502 22.0397 126.586 22.0414H126.796C126.901 22.0414 127.006 22.0414 127.111 22.0496C127.193 22.0627 127.274 22.0716 127.356 22.0763C127.414 22.0792 127.47 22.0849 127.527 22.0927C127.517 22.0908 127.507 22.0894 127.496 22.0885C127.571 22.0973 127.645 22.1019 127.72 22.1024H127.953C128.093 22.1024 128.233 22.1024 128.373 22.1006C128.722 22.0924 129.071 22.0624 129.417 22.0108C129.477 22.0033 129.536 21.9954 129.596 21.9872C129.695 21.9751 129.795 21.9637 129.894 21.9473C129.965 21.9359 130.035 21.9174 130.105 21.9032C130.253 21.8725 130.402 21.8419 130.551 21.8173C130.761 21.7816 130.969 21.7328 131.179 21.6979C131.233 21.6904 131.287 21.6822 131.341 21.6744C131.422 21.6687 131.503 21.6687 131.584 21.6687H131.686C131.84 21.6677 131.993 21.6575 132.145 21.638C132.31 21.6171 132.475 21.6077 132.64 21.6099C132.769 21.6099 132.897 21.6099 133.025 21.6202C133.094 21.6328 133.162 21.6497 133.228 21.6708C133.348 21.7093 133.467 21.7449 133.589 21.7777C133.865 21.8484 134.145 21.9039 134.427 21.9441L134.33 21.9309C134.467 21.9498 134.604 21.978 134.742 21.9855L134.789 21.988C134.864 22.0022 134.94 22.01 135.016 22.0111H135.142C135.236 22.0111 135.33 22.0076 135.423 21.9979C135.506 21.9894 135.587 21.9798 135.671 21.9776C135.755 21.9755 135.839 21.968 135.923 21.958C135.996 21.9397 136.07 21.9256 136.144 21.9156C136.209 21.9064 136.273 21.8985 136.338 21.8939C136.373 21.8917 136.408 21.8889 136.443 21.886L136.466 21.8835C136.493 21.8814 136.52 21.8789 136.547 21.8761C136.582 21.8721 136.62 21.8696 136.656 21.8679C136.831 21.828 137.006 21.7994 137.181 21.7717L137.059 21.7884L137.23 21.7631C137.416 21.7442 137.599 21.7143 137.782 21.6851C137.973 21.6633 138.161 21.6225 138.344 21.5632C138.502 21.5087 138.659 21.452 138.818 21.3946C138.964 21.3415 139.114 21.3016 139.258 21.2421C139.414 21.1783 139.573 21.1188 139.722 21.0411C139.796 21.0019 139.869 20.9585 139.943 20.9189C140.092 20.8401 140.232 20.7461 140.378 20.6613C140.531 20.5718 140.682 20.4831 140.827 20.3783C140.971 20.2801 141.107 20.1718 141.236 20.0544C141.354 19.935 141.461 19.8058 141.557 19.6681C141.706 19.4696 141.793 19.2191 141.881 18.991C141.896 18.9554 141.91 18.9176 141.924 18.8813C142.032 18.6364 142.144 18.3884 142.184 18.1226C142.206 17.9765 142.237 17.8293 142.237 17.6811C142.237 17.6294 142.237 17.5774 142.234 17.5257C142.225 17.3829 142.209 17.2408 142.185 17.0998C142.185 17.0941 142.183 17.0888 142.182 17.0835C142.182 17.0197 142.182 16.9559 142.182 16.8932C142.174 16.7008 142.155 16.5091 142.124 16.3191C142.093 16.1024 142.01 15.8897 141.923 15.6869L141.895 15.6174C141.86 15.5173 141.825 15.4161 141.786 15.317C141.766 15.2675 141.747 15.2169 141.732 15.1655C141.707 15.0863 141.676 15.0089 141.641 14.9336C141.58 14.7649 141.505 14.6023 141.415 14.4475C141.288 14.2466 141.15 14.0541 140.999 13.8709L141.055 13.9422C141.013 13.8884 140.97 13.8353 140.925 13.7843C140.898 13.7408 140.873 13.6967 140.845 13.6539C140.751 13.5085 140.649 13.3695 140.538 13.2377C140.379 13.052 140.184 12.9123 139.992 12.7659L139.93 12.7185C139.803 12.6215 139.674 12.5289 139.539 12.4412C139.388 12.3418 139.248 12.2253 139.097 12.1258C138.945 12.0264 138.782 11.9594 138.636 11.8547C138.572 11.8073 138.506 11.765 138.436 11.7282C138.281 11.6469 138.119 11.5795 137.953 11.5268C137.788 11.478 137.621 11.4387 137.452 11.4092C137.283 11.3779 137.114 11.3415 136.944 11.3151C136.81 11.2896 136.675 11.2743 136.54 11.2695H136.417C136.33 11.2695 136.242 11.2695 136.155 11.2695C135.981 11.2695 135.808 11.2695 135.635 11.261C135.462 11.2524 135.297 11.2285 135.127 11.2161C135.04 11.2097 134.952 11.2161 134.865 11.2161H134.592C134.515 11.2161 134.439 11.2161 134.362 11.2161C134.128 11.2182 133.892 11.22 133.659 11.2022H133.655C133.578 11.1868 133.502 11.1747 133.426 11.1637L133.521 11.1765C133.464 11.1687 133.408 11.1566 133.352 11.143C133.248 11.1207 133.143 11.1051 133.037 11.0963C132.909 11.0711 132.781 11.053 132.652 11.0422L132.559 11.0358H132.555C132.45 11.0137 132.342 11.0001 132.234 10.9859C132.126 10.9716 132.014 10.9502 131.902 10.9378C131.878 10.9349 131.854 10.9324 131.83 10.9306C131.744 10.9098 131.66 10.8824 131.579 10.8487L131.607 10.8604L131.406 10.7778C131.39 10.7706 131.375 10.7628 131.36 10.7549L131.336 10.7293L131.353 10.7514L131.35 10.7496C131.33 10.7243 131.31 10.6994 131.29 10.6741L131.325 10.7204L131.283 10.668C131.168 10.5052 131.067 10.3335 130.979 10.1545C130.956 10.0832 130.935 10.0098 130.915 9.93569C130.903 9.89079 130.89 9.84695 130.878 9.80277C130.878 9.74468 130.882 9.68659 130.884 9.62958C130.884 9.59394 130.887 9.55652 130.889 9.52018C130.901 9.46173 130.914 9.40294 130.924 9.34414C130.944 9.25386 130.97 9.16522 131.002 9.07901C131.028 8.99491 131.06 8.91223 131.088 8.82956C131.098 8.79998 131.108 8.77076 131.118 8.7419C131.16 8.66029 131.208 8.58082 131.253 8.50207C131.316 8.39516 131.382 8.28612 131.454 8.18492C131.479 8.15213 131.504 8.11899 131.528 8.0862L131.487 8.14001C131.532 8.08086 131.576 8.0217 131.621 7.96184C131.601 7.98714 131.582 8.01315 131.562 8.03881C131.641 7.9344 131.719 7.82999 131.798 7.72593L131.705 7.84745C131.756 7.77974 131.806 7.71179 131.856 7.64361C131.941 7.54241 132.031 7.44762 132.124 7.35069C132.217 7.25376 132.302 7.14614 132.398 7.05135C132.555 6.95047 132.719 6.86207 132.888 6.78694L132.965 6.7513L132.973 6.74809L132.967 6.75023C133.076 6.70105 133.183 6.64903 133.29 6.59308C133.387 6.54604 133.478 6.49366 133.572 6.44769ZM133.583 6.4427L133.646 6.41561L133.576 6.4459L133.583 6.4427ZM139.458 15.3042C139.459 15.3063 139.461 15.3084 139.462 15.3102L139.432 15.2703L139.458 15.3042ZM131.387 10.7899L131.445 10.8676C131.425 10.8408 131.404 10.8145 131.384 10.7881L131.387 10.7899Z" fill="#262626"/>
<path d="M163.893 9.96455C163.848 9.7094 163.755 9.47777 163.654 9.24008C163.553 9.00239 163.411 8.80889 163.252 8.6104C163.147 8.47891 163.022 8.37022 162.904 8.25155C162.664 8.00888 162.473 7.71952 162.228 7.48112C162.002 7.26018 161.75 7.0681 161.513 6.85785C161.694 6.72362 161.877 6.59201 162.063 6.46301C162.352 6.26024 162.636 6.0393 162.952 5.87895L162.985 5.8622L163.189 5.70219C163.313 5.57555 163.403 5.41794 163.448 5.24509C163.494 5.07224 163.495 4.89019 163.45 4.7171C163.405 4.54402 163.316 4.38595 163.192 4.25866C163.069 4.13138 162.914 4.03933 162.745 3.99169L162.478 3.95606C162.299 3.95589 162.124 4.00424 161.97 4.0961C161.652 4.25432 161.367 4.47384 161.075 4.67732C160.784 4.8808 160.484 5.09568 160.198 5.31876L160.08 5.41141C159.94 5.51831 159.802 5.6295 159.668 5.7446C159.591 5.7168 159.513 5.6915 159.434 5.67012C159.333 5.64304 159.235 5.61631 159.136 5.57961L159.054 5.54932C158.998 5.51939 158.939 5.49401 158.879 5.47341C158.818 5.44403 158.754 5.42168 158.688 5.40678L158.641 5.39787C158.612 5.38653 158.583 5.37748 158.553 5.37078C158.515 5.36223 158.477 5.35582 158.439 5.35083C158.408 5.34334 158.377 5.33729 158.346 5.33301C158.242 5.25096 158.124 5.19042 157.997 5.15483C157.676 5.09615 157.355 5.03925 157.033 4.98414C156.782 4.94045 156.528 4.91272 156.274 4.90111C156.102 4.89434 155.93 4.87973 155.758 4.87153C155.45 4.85621 155.146 4.80026 154.838 4.77745C154.707 4.76748 154.576 4.76106 154.445 4.76106C154.419 4.76106 154.393 4.76106 154.368 4.76106C154.163 4.76989 153.959 4.79119 153.757 4.82485C153.554 4.84773 153.352 4.88283 153.153 4.92997C153.005 4.9681 152.86 5.0187 152.712 5.05933C152.39 5.14842 152.063 5.21826 151.749 5.3323C151.6 5.38611 151.456 5.45275 151.311 5.51546L151.426 5.46593C151.086 5.61275 150.747 5.76242 150.411 5.91957C150.048 6.08991 149.769 6.38034 149.48 6.6533C149.357 6.76983 149.228 6.87888 149.097 6.98507C148.935 7.10584 148.783 7.23992 148.642 7.38597C148.472 7.57461 148.32 7.7787 148.187 7.99569C148.099 8.13538 148.002 8.26937 147.914 8.40835C147.831 8.54325 147.757 8.68334 147.691 8.82778C147.586 9.04908 147.486 9.2693 147.397 9.4988C147.349 9.62316 147.308 9.75003 147.262 9.87511C147.18 10.0586 147.096 10.24 147.023 10.4285C146.965 10.5772 146.918 10.7297 146.881 10.885C146.841 11.0479 146.809 11.2122 146.767 11.3746C146.724 11.5371 146.686 11.7078 146.647 11.8735C146.543 12.294 146.495 12.7266 146.504 13.16C146.515 13.495 146.523 13.8299 146.548 14.1642C146.554 14.2465 146.562 14.3288 146.571 14.4108C146.574 14.435 146.577 14.4589 146.579 14.4821C146.579 14.4906 146.579 14.4988 146.582 14.507C146.582 14.5131 146.584 14.5191 146.585 14.5252C146.585 14.5747 146.588 14.6241 146.595 14.6731C146.601 14.723 146.611 14.7725 146.624 14.821C146.651 15.0301 146.678 15.2404 146.716 15.4474C146.748 15.6092 146.791 15.7686 146.844 15.9242C146.976 16.3201 147.14 16.7043 147.334 17.0728C147.412 17.2189 147.485 17.3685 147.574 17.5068C147.657 17.6358 147.749 17.7587 147.834 17.8849C147.867 17.9319 147.899 17.9793 147.931 18.0274C147.863 18.0869 147.796 18.1457 147.727 18.2031C147.449 18.4119 147.163 18.6115 146.927 18.8684C146.824 18.9807 146.717 19.0901 146.616 19.2038C146.545 19.2844 146.47 19.3609 146.39 19.4329C146.359 19.4571 146.329 19.4821 146.3 19.5088C146.173 19.638 146.082 19.7985 146.034 19.9746C145.973 20.1966 145.988 20.4332 146.075 20.6459C146.163 20.8585 146.318 21.0349 146.517 21.1463C146.715 21.2577 146.945 21.2976 147.168 21.2596C147.391 21.2215 147.596 21.1078 147.748 20.9367C147.814 20.8827 147.877 20.825 147.937 20.7639C148.013 20.6841 148.085 20.5992 148.161 20.5191C148.306 20.3673 148.445 20.214 148.602 20.0772C148.685 20.0152 148.768 19.9535 148.85 19.8901C148.971 19.7957 149.089 19.6987 149.205 19.5997C149.219 19.6157 149.232 19.6317 149.246 19.6474C149.525 19.9616 149.84 20.2403 150.184 20.4774C150.324 20.5755 150.468 20.6662 150.616 20.7496C150.763 20.8323 150.914 20.9039 151.062 20.983C151.434 21.1822 151.805 21.3936 152.218 21.4851C152.353 21.5151 152.489 21.5443 152.623 21.5771C152.758 21.6099 152.893 21.6562 153.028 21.6933C153.252 21.7538 153.486 21.7688 153.715 21.8002C153.84 21.8169 153.966 21.8308 154.091 21.8454C154.272 21.8744 154.453 21.8941 154.636 21.9046C154.811 21.9124 154.986 21.9188 155.161 21.9167C155.518 21.9133 155.874 21.8895 156.229 21.8454C156.491 21.8119 156.748 21.7674 157.007 21.7175C157.173 21.6908 157.337 21.6551 157.5 21.6106C157.663 21.5607 157.821 21.4955 157.98 21.4349C158.14 21.3743 158.294 21.3226 158.448 21.261C158.687 21.1666 158.931 21.0728 159.155 20.9442C159.307 20.857 159.457 20.7659 159.604 20.6709C159.894 20.4831 160.184 20.2956 160.467 20.0968C160.603 20.0009 160.74 19.9061 160.884 19.8235C161.033 19.7422 161.176 19.6516 161.314 19.5523C161.659 19.2914 162.012 19.0366 162.294 18.7024C162.576 18.3681 162.784 17.9733 163.016 17.5977C163.241 17.2317 163.423 16.8408 163.56 16.4324C163.677 16.0849 163.715 15.7154 163.762 15.3537L163.752 15.425C163.756 15.399 163.759 15.3733 163.763 15.3473L163.77 15.2921C163.831 14.8573 163.878 14.4218 163.915 13.9842C163.93 13.8061 163.955 13.6279 163.972 13.4497C163.988 13.2715 163.995 13.0848 163.999 12.902C164.008 12.5428 164.006 12.1832 164.006 11.824C164.007 11.4648 164.017 11.1113 163.996 10.7549C163.978 10.4896 163.943 10.2257 163.893 9.96455ZM158.069 7.33145H158.07L158 7.30223L158.069 7.33145ZM148.527 12.7063C148.578 12.423 148.655 12.1444 148.722 11.865C148.762 11.6996 148.797 11.5325 148.838 11.3661C148.866 11.2522 148.901 11.1401 148.943 11.0304C148.964 10.9841 148.986 10.9381 149.008 10.8918C149.08 10.7339 149.144 10.5711 149.208 10.4107C149.252 10.2974 149.29 10.1816 149.332 10.0668C149.364 9.99769 149.398 9.92927 149.43 9.8605C149.486 9.74397 149.541 9.62602 149.605 9.51519C149.675 9.39866 149.757 9.29033 149.831 9.1763C149.888 9.08792 149.942 8.99812 150 8.90867C150.107 8.78563 150.224 8.67192 150.35 8.56871C150.532 8.42617 150.712 8.28006 150.881 8.12113C150.994 8.01422 151.102 7.90304 151.217 7.80041C151.354 7.72213 151.495 7.65205 151.639 7.59052C151.793 7.51925 151.947 7.44904 152.103 7.37991L152.148 7.36067C152.299 7.29793 152.455 7.2445 152.613 7.20067C152.773 7.15648 152.936 7.1212 153.096 7.0763C153.4 6.99113 153.697 6.89242 154.007 6.83968C154.147 6.8198 154.289 6.80933 154.432 6.80832C154.589 6.80832 154.747 6.81473 154.903 6.83041C155.06 6.84609 155.218 6.86605 155.375 6.88565C155.532 6.90525 155.697 6.91416 155.86 6.92449C156.085 6.93874 156.311 6.94445 156.536 6.96583C156.661 6.98721 156.785 7.01144 156.911 7.03104C157.095 7.05955 157.278 7.09518 157.461 7.12904L157.575 7.14436C157.614 7.17592 157.654 7.20451 157.697 7.22989C157.879 7.30971 157.916 7.33394 158.006 7.34998C158.044 7.36321 158.084 7.37381 158.124 7.38169C158.031 7.48147 157.94 7.58268 157.848 7.68317C157.735 7.80576 157.618 7.92442 157.505 8.04736C157.448 8.10901 157.394 8.1728 157.335 8.23267C157.276 8.29254 157.213 8.34813 157.152 8.40657C157.035 8.51965 156.918 8.63404 156.802 8.74974C156.69 8.86306 156.587 8.98279 156.482 9.10217C156.254 9.36124 155.994 9.59074 155.766 9.85052C155.592 10.0541 155.434 10.2717 155.294 10.5012C155.207 10.6406 155.117 10.7788 155.022 10.9132C154.943 11.0087 154.859 11.0994 154.77 11.1847C154.643 11.3052 154.508 11.4131 154.372 11.5225C154.097 11.7438 153.843 11.9926 153.58 12.2285C153.317 12.4644 153.039 12.6746 152.791 12.9234C152.538 13.1774 152.314 13.4611 152.073 13.7273C151.833 13.9935 151.603 14.2519 151.366 14.5113C151.246 14.6424 151.128 14.7743 151.013 14.9097C150.899 15.0451 150.784 15.1794 150.661 15.3052C150.538 15.431 150.407 15.5597 150.276 15.6805C150.144 15.8013 150.013 15.9061 149.894 16.0315C149.774 16.1569 149.666 16.2931 149.556 16.4263C149.505 16.4876 149.454 16.5483 149.402 16.6084C149.227 16.359 149.092 16.0825 148.956 15.8095C148.94 15.776 148.923 15.7421 148.907 15.7079C148.837 15.5297 148.773 15.3516 148.72 15.1652C148.665 14.9537 148.625 14.7383 148.6 14.5209C148.599 14.4511 148.592 14.3816 148.577 14.3135C148.553 14.0658 148.539 13.8171 148.529 13.5684C148.511 13.2813 148.51 12.9935 148.527 12.7063ZM148.599 14.5295C148.604 14.5651 148.608 14.6007 148.613 14.6364C148.607 14.5997 148.604 14.5644 148.599 14.5295ZM161.998 11.5749C161.998 11.9313 161.998 12.2876 161.995 12.6422C161.993 12.8293 161.989 13.016 161.981 13.2031C161.974 13.3777 161.951 13.5502 161.933 13.7237C161.895 14.0869 161.865 14.4507 161.826 14.8135C161.815 14.8916 161.805 14.9697 161.794 15.0476C161.787 15.105 161.779 15.162 161.772 15.2194C161.734 15.4953 161.668 15.7665 161.575 16.0286C161.471 16.2432 161.355 16.4519 161.229 16.654C161.099 16.8679 160.977 17.0881 160.839 17.2955C160.71 17.4421 160.569 17.5777 160.418 17.701C160.334 17.7672 160.247 17.829 160.157 17.8863C160.011 17.9768 159.863 18.0609 159.718 18.1522C159.574 18.2434 159.443 18.3421 159.305 18.4372C159.166 18.5324 159.018 18.6315 158.872 18.7248C158.575 18.9151 158.283 19.1168 157.965 19.2704C157.844 19.3178 157.723 19.3627 157.6 19.4065C157.443 19.4628 157.289 19.5302 157.131 19.5847C156.974 19.639 156.813 19.6812 156.649 19.7109C156.476 19.744 156.304 19.7821 156.13 19.8106H156.123C155.835 19.8427 155.544 19.8562 155.255 19.8669C155.096 19.8726 154.937 19.8669 154.779 19.8619C154.646 19.8573 154.514 19.8498 154.382 19.8352C154.165 19.8053 153.947 19.7789 153.729 19.7522C153.514 19.7116 153.307 19.636 153.093 19.5861C152.891 19.5394 152.685 19.502 152.489 19.4347C152.397 19.3887 152.307 19.3395 152.217 19.29C152.084 19.2187 151.949 19.1503 151.815 19.0801C151.583 18.9604 151.36 18.8243 151.148 18.6728C150.982 18.5303 150.826 18.3764 150.682 18.2124C150.765 18.1215 150.848 18.0296 150.927 17.9341C151.037 17.8011 151.144 17.664 151.261 17.536C151.378 17.4081 151.512 17.2951 151.641 17.1779C151.904 16.9398 152.152 16.6856 152.384 16.4167C152.615 16.1502 152.849 15.887 153.086 15.6274C153.323 15.3694 153.555 15.106 153.786 14.8434C153.909 14.7034 154.031 14.563 154.158 14.4272C154.278 14.3037 154.404 14.1869 154.536 14.0776C154.809 13.8438 155.078 13.607 155.344 13.367C155.476 13.2484 155.605 13.1261 155.741 13.0128C155.878 12.8995 156.014 12.8026 156.138 12.6835C156.38 12.4473 156.598 12.1861 156.787 11.9042C156.861 11.7973 156.935 11.6879 157.004 11.5763C157.048 11.5051 157.091 11.4338 157.138 11.3625C157.33 11.1377 157.546 10.9349 157.75 10.7211C157.862 10.6042 157.966 10.4809 158.073 10.3601C158.181 10.2393 158.296 10.126 158.411 10.0134C158.533 9.89364 158.66 9.77996 158.781 9.65702C158.896 9.54049 159.001 9.41256 159.116 9.29461C159.23 9.17665 159.348 9.04516 159.463 8.92008C159.577 8.795 159.687 8.68203 159.798 8.56372C159.885 8.46929 159.965 8.3688 160.047 8.26902C160.147 8.35811 160.247 8.44719 160.35 8.53236C160.476 8.63927 160.604 8.74012 160.726 8.85094C160.848 8.96512 160.962 9.08789 161.067 9.21835C161.19 9.36695 161.31 9.51911 161.443 9.6588C161.548 9.76963 161.662 9.86905 161.764 9.9813C161.799 10.0355 161.83 10.0912 161.86 10.1484C161.911 10.3065 161.95 10.4684 161.976 10.6327C162.005 10.9463 161.998 11.2606 161.998 11.5749ZM163.769 15.3259C163.769 15.3191 163.769 15.3127 163.771 15.306C163.771 15.3117 163.77 15.3188 163.769 15.3259Z" fill="#262626"/>
<path d="M190.993 13.8946C190.768 12.7229 190.489 11.5626 190.19 10.4091C190.119 10.1364 190.06 9.86062 189.994 9.5873C189.927 9.31397 189.854 9.03423 189.802 8.75378C189.697 8.18647 189.624 7.61345 189.543 7.0415C189.445 6.25288 189.368 5.46249 189.252 4.67637C189.201 4.32892 189.163 3.97685 189.1 3.63154C189.024 3.21745 188.927 2.80729 188.846 2.39356C188.794 2.12059 188.574 1.86616 188.345 1.72932C188.221 1.65546 188.084 1.60719 187.942 1.58727C187.8 1.56736 187.655 1.57619 187.516 1.61326C187.377 1.65034 187.247 1.71493 187.133 1.80333C187.018 1.89173 186.922 2.00221 186.85 2.12843C186.694 2.40033 186.681 2.68364 186.74 2.98369C186.835 3.4694 186.957 3.95083 187.026 4.44118C187.084 4.85063 187.145 5.26079 187.204 5.66918C187.251 6.06117 187.288 6.45708 187.333 6.85014C187.389 7.32908 187.462 7.80552 187.532 8.28233C187.598 8.72813 187.657 9.17321 187.752 9.61331C187.839 10.0174 187.942 10.4187 188.039 10.8189C188.146 11.26 188.269 11.6976 188.372 12.1395C188.473 12.5714 188.57 13.0037 188.667 13.4356C188.848 14.2433 188.999 15.0554 189.122 15.872C189.185 16.4154 189.238 16.9571 189.266 17.5041C189.276 17.6844 189.284 17.8636 189.289 18.0425C189.023 17.8643 188.761 17.6798 188.502 17.4912C188.183 17.2073 187.891 16.8936 187.63 16.5544C187.286 16.079 186.939 15.6051 186.549 15.1664C186.154 14.7224 185.678 14.3624 185.21 14.0011C184.89 13.7445 184.57 13.4862 184.254 13.2235C183.912 12.9385 183.584 12.6356 183.248 12.3426C182.924 12.0575 182.6 11.7725 182.268 11.4942C181.929 11.2091 181.58 10.93 181.261 10.6211C180.922 10.2932 180.605 9.94401 180.29 9.593C180.006 9.27656 179.747 8.93873 179.46 8.62514C179.208 8.34968 178.913 8.11306 178.627 7.87679C178.312 7.61665 177.988 7.36863 177.664 7.12025C177.364 6.86982 177.081 6.60022 176.816 6.31311C176.503 5.97707 176.201 5.62641 175.862 5.31745C175.643 5.11642 175.408 4.93339 175.16 4.77009C174.906 4.60439 174.627 4.48964 174.346 4.38024C173.888 4.20028 173.358 4.15894 172.914 4.39913C172.543 4.59904 172.313 4.95112 172.122 5.31745C171.877 5.78428 171.749 6.28211 171.65 6.79739C171.557 7.27847 171.454 7.7567 171.357 8.23707C171.258 8.72527 171.108 9.20422 170.989 9.68743C170.869 10.1706 170.764 10.6496 170.663 11.1328C170.52 11.8124 170.411 12.4998 170.295 13.1843C170.18 13.8614 170.01 14.5289 169.892 15.2067C169.757 15.9824 169.634 16.7671 169.554 17.5508C169.484 18.2296 169.435 18.9102 169.358 19.588C169.25 20.2569 169.102 20.9158 168.952 21.5761C168.818 22.167 169.124 22.7788 169.715 22.9442C170.271 23.0999 170.925 22.7575 171.059 22.1677C171.252 21.3185 171.433 20.4754 171.541 19.6098C171.638 18.8283 171.681 18.0418 171.775 17.2578C171.832 16.8505 171.887 16.4428 171.957 16.0377C172.042 15.5534 172.151 15.0755 172.247 14.5934C172.434 13.6633 172.56 12.7214 172.755 11.7928C172.85 11.342 172.943 10.8933 173.054 10.4461C173.171 9.96931 173.311 9.49714 173.42 9.02069C173.525 8.55743 173.619 8.08776 173.712 7.61986C173.754 7.40249 173.794 7.18475 173.838 6.96809C173.864 6.85038 173.896 6.73445 173.936 6.621C174.027 6.67374 174.115 6.7304 174.202 6.79098C174.62 7.15624 174.989 7.57781 175.364 7.98798C175.803 8.46692 176.319 8.85891 176.833 9.25054C177.071 9.44155 177.306 9.63576 177.535 9.8371C177.811 10.0851 178.068 10.3534 178.305 10.64C178.588 10.9717 178.862 11.3071 179.16 11.6253C179.459 11.9435 179.767 12.2446 180.091 12.5354C180.415 12.8262 180.762 13.0967 181.09 13.3846C181.39 13.6458 181.693 13.9042 181.991 14.1686C182.648 14.7534 183.325 15.3114 184.016 15.8538C184.293 16.0664 184.559 16.2947 184.811 16.5376C185.024 16.7549 185.224 16.985 185.411 17.2268C185.713 17.6402 186.011 18.0593 186.341 18.4502C186.687 18.8589 187.09 19.1921 187.52 19.5032C187.703 19.6347 187.89 19.7573 188.076 19.8849C188.253 20.0071 188.428 20.1343 188.615 20.2412C188.795 20.3456 188.978 20.4422 189.156 20.5495C189.226 20.5912 189.294 20.6325 189.362 20.6735C189.471 20.7348 189.585 20.7874 189.702 20.8306C189.884 20.9044 190.201 20.9265 190.391 20.8577C190.601 20.7822 190.765 20.7152 190.925 20.5527C191.032 20.4481 191.12 20.3267 191.188 20.1931C191.304 19.964 191.357 19.7324 191.394 19.4804C191.443 19.1808 191.472 18.8781 191.481 18.5746C191.489 18.0913 191.457 17.6071 191.43 17.1242C191.367 16.0405 191.197 14.959 190.993 13.8946Z" fill="#262626"/>
<path d="M209.979 16.2634C209.942 15.9166 209.884 15.582 209.75 15.2595C209.673 15.0714 209.61 14.9256 209.499 14.7631C209.396 14.6067 209.272 14.4654 209.131 14.343C208.984 14.214 208.819 14.1076 208.642 14.0272C208.502 13.9631 208.364 13.9086 208.222 13.8558C207.797 13.6973 207.361 13.5707 206.934 13.4161C206.533 13.2703 206.133 13.1214 205.731 12.9796C205.311 12.831 204.891 12.6995 204.477 12.537C204.088 12.3852 203.703 12.2301 203.306 12.104C202.358 11.8025 201.379 11.6094 200.426 11.32C199.88 11.1543 199.346 10.9512 198.816 10.7345C198.534 10.6073 198.262 10.4584 198.003 10.2891C197.956 10.2438 197.912 10.1971 197.87 10.1465C197.85 10.1155 197.831 10.0835 197.814 10.0507C197.778 9.94107 197.748 9.82932 197.725 9.71605C197.72 9.59596 197.72 9.4773 197.725 9.35721C197.773 9.09923 197.84 8.84526 197.925 8.59746C197.99 8.46391 198.061 8.334 198.14 8.20832C198.222 8.11604 198.309 8.02893 198.402 7.94747C198.66 7.77215 198.932 7.61728 199.214 7.48421C199.667 7.29365 200.13 7.12783 200.6 6.98745C201.217 6.80927 201.838 6.64463 202.459 6.47893C203.564 6.18351 204.669 5.90591 205.802 5.73914C206.286 5.67927 206.77 5.639 207.257 5.60337C207.554 5.58163 207.814 5.49646 208.03 5.27801C208.234 5.06939 208.349 4.7865 208.349 4.49154C208.349 4.19658 208.234 3.91369 208.03 3.70506C207.849 3.52225 207.572 3.37793 207.308 3.37793C207.291 3.37793 207.273 3.37793 207.257 3.37793C206.192 3.45562 205.134 3.57713 204.086 3.79166C203.145 3.98801 202.219 4.24066 201.294 4.49011C200.393 4.73457 199.494 4.97582 198.633 5.34073C198.335 5.46652 198.04 5.59517 197.752 5.74163C197.483 5.87918 197.236 6.06805 197 6.25692C196.413 6.72766 196.012 7.383 195.785 8.10462C195.508 8.98018 195.421 9.93486 195.768 10.8065C195.843 11.0053 195.939 11.1953 196.054 11.3731C196.158 11.528 196.275 11.6741 196.402 11.81C196.577 11.9985 196.801 12.1482 197.016 12.2836C197.21 12.405 197.412 12.5142 197.62 12.6107C198.579 13.0555 199.575 13.412 200.596 13.6759C201.51 13.9136 202.438 14.1199 203.324 14.4552C203.714 14.6027 204.099 14.7603 204.492 14.901C204.899 15.0461 205.312 15.1751 205.717 15.3269C206.375 15.5731 207.044 15.7812 207.704 16.0228L207.71 16.0264L207.713 16.0317C207.752 16.1552 207.784 16.2812 207.809 16.4088C207.819 16.5941 207.817 16.7801 207.8 16.965C207.747 17.2393 207.674 17.509 207.58 17.7718C207.467 18.019 207.334 18.2562 207.183 18.481C207.086 18.5933 206.983 18.7003 206.875 18.8017C206.701 18.912 206.52 19.0119 206.335 19.1007C205.837 19.2958 205.321 19.44 204.794 19.5311C204.229 19.6263 203.663 19.736 203.103 19.8583C202.543 19.9805 201.994 20.1394 201.438 20.2813C201.139 20.3568 200.832 20.3999 200.528 20.4559C200.243 20.5075 199.959 20.5589 199.674 20.6027C199.165 20.669 198.659 20.7424 198.151 20.8165C197.34 20.9191 196.528 20.9647 195.712 20.9915C195.117 21.0111 194.619 21.4825 194.619 22.1033C194.619 22.6949 195.117 23.2351 195.712 23.2155C196.335 23.1948 196.958 23.167 197.579 23.1086C198.191 23.0508 198.798 22.9489 199.406 22.8591C199.908 22.7986 200.41 22.7319 200.907 22.6378C201.386 22.5473 201.864 22.4718 202.334 22.3424C202.772 22.2223 203.209 22.1044 203.652 22.0085C204.076 21.9173 204.503 21.8403 204.929 21.7591C205.363 21.6775 205.801 21.614 206.225 21.484C206.745 21.3247 207.261 21.1276 207.738 20.8621C208.834 20.2488 209.517 19.0779 209.835 17.8776C209.976 17.3602 210.035 16.7982 209.979 16.2634Z" fill="#262626"/>
</svg>
