<svg width="50" height="50" viewBox="0 0 50 50" fill="none" xmlns="http://www.w3.org/2000/svg">
<path d="M50 25C50 38.8071 38.8071 50 25 50C11.1929 50 0 38.8071 0 25C0 11.1929 11.1929 0 25 0C38.8071 0 50 11.1929 50 25Z" fill="#3D3D3D"/>
<path d="M23.6016 11.034C27.8051 10.6837 31.1663 13.0879 33.5977 16.1412C34.5977 17.6412 35.6653 21.3038 35.5977 23.1412C35.4943 25.9473 34.1863 30.1108 31.5962 31.6412C28.8795 33.2466 25.0019 33.9971 22.0977 33.1412C19.6901 32.4318 15.8029 30.0613 14.8538 27.6412C13.8593 25.1051 13.6815 21.7222 14.5974 19.1412C15.273 17.2372 17.2507 14.029 18.859 12.9072C20.261 11.9294 21.8771 11.1777 23.6016 11.034Z" stroke="white" stroke-width="2.5" stroke-linecap="round"/>
<path d="M32.0977 31.6411C34.0977 34.1411 34.3623 33.4667 36.5977 36.1411" stroke="white" stroke-width="2.5" stroke-linecap="round"/>
</svg>
